<?xml version="1.0" encoding="UTF-8"?>
<!-- Created by Vectric (http://www.vectric.com/) -->
<svg width="1220.00000000mm" height="610.00000000mm" viewBox="0.00000000 0.00000000 1220.00000000 610.00000000" id="svg2" version="1.1" xmlns="http://www.w3.org/2000/svg" xmlns:xlink="http://www.w3.org/1999/xlink" xmlns:inkscape="http://www.inkscape.org/namespaces/inkscape">
    <g inkscape:groupmode="layer" id="bd5909a6-3a84-4a35-ab19-3732c146165d" inkscape:label="Layer 1" style="stroke:#000000;">
        <path style="fill:none;stroke-width:0.280000;stroke-linecap:round;stroke-linejoin:round;stroke-opacity:1;stroke:#000000;" d="M 169.709515,232.157285 A 165.000000,165.000000 0 0,0 4.709515,397.157285 A 165.000000,165.000000 0 0,0 169.709515,562.157285 A 165.000000,165.000000 0 0,0 334.709515,397.157285 A 165.000000,165.000000 0 0,0 169.709515,232.157285 "/>
        <path style="fill:none;stroke-width:0.280000;stroke-linecap:round;stroke-linejoin:round;stroke-opacity:1;stroke:#000000;" d="M 551.353792,287.500000 A 122.500000,122.500000 0 0,0 428.853792,410.000000 A 122.500000,122.500000 0 0,0 551.353792,532.500000 A 122.500000,122.500000 0 0,0 673.853792,410.000000 A 122.500000,122.500000 0 0,0 551.353792,287.500000 "/>
        <path style="fill:none;stroke-width:0.280000;stroke-linecap:round;stroke-linejoin:round;stroke-opacity:1;stroke:#000000;" d="M 358.354000,590.000000 A 20.000000,20.000000 0 0,0 378.354000,610.000000 L 1198.354000,610.000000 A 20.000000,20.000000 0 0,0 1218.354000,590.000000 L 1218.354000,230.000000 A 20.000000,20.000000 0 0,0 1198.354000,210.000000 L 378.354000,210.000000 A 20.000000,20.000000 0 0,0 358.354000,230.000000 L 358.354000,590.000000 "/>
        <path style="fill:none;stroke-width:0.280000;stroke-linecap:round;stroke-linejoin:round;stroke-opacity:1;stroke:#000000;" d="M 169.709515,297.157285 C 102.054633,297.157285 47.209515,341.928810 47.209515,397.157285 C 47.209515,452.385760 102.054633,497.157285 169.709515,497.157285 C 237.364397,497.157285 292.209515,452.385760 292.209515,397.157285 C 292.209515,341.928810 237.364397,297.157285 169.709515,297.157285 "/>
        <path style="fill:none;stroke-width:0.280000;stroke-linecap:round;stroke-linejoin:round;stroke-opacity:1;stroke:#000000;" d="M 890.139628,583.279719 L 1030.139628,583.279719 L 1030.139628,493.279719 L 890.139628,493.279719 L 890.139628,583.279719 "/>
        <path style="fill:none;stroke-width:0.280000;stroke-linecap:round;stroke-linejoin:round;stroke-opacity:1;stroke:#000000;" d="M 825.000000,427.500000 L 1075.000000,427.500000 L 1075.000000,392.500000 L 825.000000,392.500000 L 825.000000,427.500000 "/>
    </g>
    <g inkscape:groupmode="layer" id="fbf91e04-eb68-4039-91be-12587f3b030a" inkscape:label="Dimensions" style="stroke:#999999;">
        <path style="fill:none;stroke-width:0.280000;stroke-linecap:round;stroke-linejoin:round;stroke-opacity:1;stroke:#999999;" d="M 153.370062,437.339855 C 153.365395,436.623855 153.661395,435.933188 154.184062,435.443855 C 154.687395,434.938522 155.379395,434.657855 156.092062,434.669855 C 156.800062,434.650522 157.490062,434.925855 157.990062,435.427855 C 158.506728,435.935855 158.793395,436.639188 158.780062,437.363855 C 158.786062,438.015188 158.548062,438.650522 158.116062,439.137855 L 153.254062,444.767855 L 158.756062,444.767855 "/>
        <path style="fill:none;stroke-width:0.280000;stroke-linecap:round;stroke-linejoin:round;stroke-opacity:1;stroke:#999999;" d="M 167.832062,443.067855 L 160.980062,443.067855 L 166.350062,434.731855 L 166.350062,444.767855 "/>
        <path style="fill:none;stroke-width:0.280000;stroke-linecap:round;stroke-linejoin:round;stroke-opacity:1;stroke:#999999;" d="M 175.408062,434.749855 L 171.502062,434.749855 L 170.656062,439.427855 C 171.188728,438.923855 171.907395,438.655855 172.640062,438.687855 C 173.484062,438.667188 174.304062,439.001855 174.892062,439.607855 C 175.464728,440.181188 175.782728,440.967855 175.770062,441.777855 C 175.771395,442.573188 175.448062,443.340522 174.878062,443.895855 C 174.295395,444.508522 173.478062,444.853855 172.632062,444.843855 C 171.563395,444.898522 170.550062,444.335855 170.032062,443.399855 "/>
        <path style="fill:none;stroke-width:0.280000;stroke-linecap:round;stroke-linejoin:round;stroke-opacity:1;stroke:#999999;" d="M 177.970062,444.191855 L 177.970062,444.767855 "/>
        <path style="fill:none;stroke-width:0.280000;stroke-linecap:round;stroke-linejoin:round;stroke-opacity:1;stroke:#999999;" d="M 183.204062,434.745855 C 184.141395,434.812522 184.968728,435.401188 185.338728,436.265188 C 185.898728,437.372522 186.182728,438.607855 186.164062,439.847855 C 186.183395,441.100522 185.893395,442.348522 185.323395,443.464522 C 184.904062,444.308522 184.064062,444.872522 183.124062,444.939855 C 182.200728,444.815855 181.390728,444.245188 180.962728,443.417855 C 180.422728,442.298522 180.150728,441.058522 180.172062,439.815855 C 180.163395,438.537188 180.462728,437.265855 181.040728,436.125188 C 181.486062,435.335855 182.300728,434.816522 183.204062,434.745855 "/>
        <path style="fill:none;stroke-width:0.280000;stroke-linecap:round;stroke-linejoin:round;stroke-opacity:1;stroke:#999999;" d="M 55.299685,439.632379 L 152.004062,439.632379 "/>
        <path style="fill:none;stroke-width:0.280000;stroke-linecap:round;stroke-linejoin:round;stroke-opacity:1;stroke:#999999;" d="M 187.414969,439.632379 L 284.119345,439.632379 "/>
        <path style="fill:none;stroke-width:0.280000;stroke-linecap:round;stroke-linejoin:round;stroke-opacity:1;stroke:#999999;" d="M 47.209515,399.657285 L 47.209515,444.632379 "/>
        <path style="fill:none;stroke-width:0.280000;stroke-linecap:round;stroke-linejoin:round;stroke-opacity:1;stroke:#999999;" d="M 292.209515,399.657285 L 292.209515,444.632379 "/>
        <path style="fill:none;stroke-width:0.280000;stroke-linecap:round;stroke-linejoin:round;stroke-opacity:1;stroke:#999999;" d="M 47.209515,439.632379 L 55.299685,442.132379 "/>
        <path style="fill:none;stroke-width:0.280000;stroke-linecap:round;stroke-linejoin:round;stroke-opacity:1;stroke:#999999;" d="M 55.299685,442.132379 L 55.299685,437.132379 "/>
        <path style="fill:none;stroke-width:0.280000;stroke-linecap:round;stroke-linejoin:round;stroke-opacity:1;stroke:#999999;" d="M 55.299685,437.132379 L 47.209515,439.632379 "/>
        <path style="fill:none;stroke-width:0.280000;stroke-linecap:round;stroke-linejoin:round;stroke-opacity:1;stroke:#999999;" d="M 292.209515,439.632379 L 284.119345,437.132379 "/>
        <path style="fill:none;stroke-width:0.280000;stroke-linecap:round;stroke-linejoin:round;stroke-opacity:1;stroke:#999999;" d="M 284.119345,437.132379 L 284.119345,442.132379 "/>
        <path style="fill:none;stroke-width:0.280000;stroke-linecap:round;stroke-linejoin:round;stroke-opacity:1;stroke:#999999;" d="M 284.119345,442.132379 L 292.209515,439.632379 "/>
        <path style="fill:none;stroke-width:0.280000;stroke-linecap:round;stroke-linejoin:round;stroke-opacity:1;stroke:#999999;" d="M 193.019673,361.458943 C 193.015007,360.742943 193.311007,360.052276 193.833673,359.562943 C 194.337007,359.057609 195.029007,358.776943 195.741673,358.788943 C 196.449673,358.769609 197.139673,359.044943 197.639673,359.546943 C 198.156340,360.054943 198.443007,360.758276 198.429673,361.482943 C 198.435673,362.134276 198.197673,362.769609 197.765673,363.256943 L 192.903673,368.886943 L 198.405673,368.886943 "/>
        <path style="fill:none;stroke-width:0.280000;stroke-linecap:round;stroke-linejoin:round;stroke-opacity:1;stroke:#999999;" d="M 203.663673,358.864943 C 204.601007,358.931609 205.428340,359.520276 205.798340,360.384276 C 206.358340,361.491609 206.642340,362.726943 206.623673,363.966943 C 206.643007,365.219609 206.353007,366.467609 205.783007,367.583609 C 205.363673,368.427609 204.523673,368.991609 203.583673,369.058943 C 202.660340,368.934943 201.850340,368.364276 201.422340,367.536943 C 200.882340,366.417609 200.610340,365.177609 200.631673,363.934943 C 200.623007,362.656276 200.922340,361.384943 201.500340,360.244276 C 201.945673,359.454943 202.760340,358.935609 203.663673,358.864943 "/>
        <path style="fill:none;stroke-width:0.280000;stroke-linecap:round;stroke-linejoin:round;stroke-opacity:1;stroke:#999999;" d="M 211.857673,358.864943 C 212.795007,358.931609 213.622340,359.520276 213.992340,360.384276 C 214.552340,361.491609 214.836340,362.726943 214.817673,363.966943 C 214.837007,365.219609 214.547007,366.467609 213.977007,367.583609 C 213.557673,368.427609 212.717673,368.991609 211.777673,369.058943 C 210.854340,368.934943 210.044340,368.364276 209.616340,367.536943 C 209.076340,366.417609 208.804340,365.177609 208.825673,363.934943 C 208.817007,362.656276 209.116340,361.384943 209.694340,360.244276 C 210.139673,359.454943 210.954340,358.935609 211.857673,358.864943 "/>
        <path style="fill:none;stroke-width:0.280000;stroke-linecap:round;stroke-linejoin:round;stroke-opacity:1;stroke:#999999;" d="M 217.017673,368.310943 L 217.017673,368.886943 "/>
        <path style="fill:none;stroke-width:0.280000;stroke-linecap:round;stroke-linejoin:round;stroke-opacity:1;stroke:#999999;" d="M 222.251673,358.864943 C 223.189007,358.931609 224.016340,359.520276 224.386340,360.384276 C 224.946340,361.491609 225.230340,362.726943 225.211673,363.966943 C 225.231007,365.219609 224.941007,366.467609 224.371007,367.583609 C 223.951673,368.427609 223.111673,368.991609 222.171673,369.058943 C 221.248340,368.934943 220.438340,368.364276 220.010340,367.536943 C 219.470340,366.417609 219.198340,365.177609 219.219673,363.934943 C 219.211007,362.656276 219.510340,361.384943 220.088340,360.244276 C 220.533673,359.454943 221.348340,358.935609 222.251673,358.864943 "/>
        <path style="fill:none;stroke-width:0.280000;stroke-linecap:round;stroke-linejoin:round;stroke-opacity:1;stroke:#999999;" d="M 209.058127,489.067115 L 209.058127,370.308943 "/>
        <path style="fill:none;stroke-width:0.280000;stroke-linecap:round;stroke-linejoin:round;stroke-opacity:1;stroke:#999999;" d="M 209.058127,357.537992 L 209.058127,305.247455 "/>
        <path style="fill:none;stroke-width:0.280000;stroke-linecap:round;stroke-linejoin:round;stroke-opacity:1;stroke:#999999;" d="M 172.209515,497.157285 L 214.058127,497.157285 "/>
        <path style="fill:none;stroke-width:0.280000;stroke-linecap:round;stroke-linejoin:round;stroke-opacity:1;stroke:#999999;" d="M 172.209515,297.157285 L 214.058127,297.157285 "/>
        <path style="fill:none;stroke-width:0.280000;stroke-linecap:round;stroke-linejoin:round;stroke-opacity:1;stroke:#999999;" d="M 209.058127,497.157285 L 211.558127,489.067115 "/>
        <path style="fill:none;stroke-width:0.280000;stroke-linecap:round;stroke-linejoin:round;stroke-opacity:1;stroke:#999999;" d="M 211.558127,489.067115 L 206.558127,489.067115 "/>
        <path style="fill:none;stroke-width:0.280000;stroke-linecap:round;stroke-linejoin:round;stroke-opacity:1;stroke:#999999;" d="M 206.558127,489.067115 L 209.058127,497.157285 "/>
        <path style="fill:none;stroke-width:0.280000;stroke-linecap:round;stroke-linejoin:round;stroke-opacity:1;stroke:#999999;" d="M 209.058127,297.157285 L 206.558127,305.247455 "/>
        <path style="fill:none;stroke-width:0.280000;stroke-linecap:round;stroke-linejoin:round;stroke-opacity:1;stroke:#999999;" d="M 206.558127,305.247455 L 211.558127,305.247455 "/>
        <path style="fill:none;stroke-width:0.280000;stroke-linecap:round;stroke-linejoin:round;stroke-opacity:1;stroke:#999999;" d="M 211.558127,305.247455 L 209.058127,297.157285 "/>
        <path style="fill:none;stroke-width:0.280000;stroke-linecap:round;stroke-linejoin:round;stroke-opacity:1;stroke:#999999;" d="M 377.669852,442.005506 C 377.665185,441.289506 377.961185,440.598839 378.483852,440.109506 C 378.987185,439.604173 379.679185,439.323506 380.391852,439.335506 C 381.099852,439.316173 381.789852,439.591506 382.289852,440.093506 C 382.806519,440.601506 383.093185,441.304839 383.079852,442.029506 C 383.085852,442.680839 382.847852,443.316173 382.415852,443.803506 L 377.553852,449.433506 L 383.055852,449.433506 "/>
        <path style="fill:none;stroke-width:0.280000;stroke-linecap:round;stroke-linejoin:round;stroke-opacity:1;stroke:#999999;" d="M 392.131852,447.733506 L 385.279852,447.733506 L 390.649852,439.397506 L 390.649852,449.433506 "/>
        <path style="fill:none;stroke-width:0.280000;stroke-linecap:round;stroke-linejoin:round;stroke-opacity:1;stroke:#999999;" d="M 399.707852,439.415506 L 395.801852,439.415506 L 394.955852,444.093506 C 395.488519,443.589506 396.207185,443.321506 396.939852,443.353506 C 397.783852,443.332839 398.603852,443.667506 399.191852,444.273506 C 399.764519,444.846839 400.082519,445.633506 400.069852,446.443506 C 400.071185,447.238839 399.747852,448.006173 399.177852,448.561506 C 398.595185,449.174173 397.777852,449.519506 396.931852,449.509506 C 395.863185,449.564173 394.849852,449.001506 394.331852,448.065506 "/>
        <path style="fill:none;stroke-width:0.280000;stroke-linecap:round;stroke-linejoin:round;stroke-opacity:1;stroke:#999999;" d="M 402.269852,448.857506 L 402.269852,449.433506 "/>
        <path style="fill:none;stroke-width:0.280000;stroke-linecap:round;stroke-linejoin:round;stroke-opacity:1;stroke:#999999;" d="M 407.503852,439.411506 C 408.441185,439.478173 409.268519,440.066839 409.638519,440.930839 C 410.198519,442.038173 410.482519,443.273506 410.463852,444.513506 C 410.483185,445.766173 410.193185,447.014173 409.623185,448.130173 C 409.203852,448.974173 408.363852,449.538173 407.423852,449.605506 C 406.500519,449.481506 405.690519,448.910839 405.262519,448.083506 C 404.722519,446.964173 404.450519,445.724173 404.471852,444.481506 C 404.463185,443.202839 404.762519,441.931506 405.340519,440.790839 C 405.785852,440.001506 406.600519,439.482173 407.503852,439.411506 "/>
        <path style="fill:none;stroke-width:0.280000;stroke-linecap:round;stroke-linejoin:round;stroke-opacity:1;stroke:#999999;" d="M 394.009305,524.409830 L 394.009305,450.855506 "/>
        <path style="fill:none;stroke-width:0.280000;stroke-linecap:round;stroke-linejoin:round;stroke-opacity:1;stroke:#999999;" d="M 394.009305,438.084555 L 394.009305,295.590170 "/>
        <path style="fill:none;stroke-width:0.280000;stroke-linecap:round;stroke-linejoin:round;stroke-opacity:1;stroke:#999999;" d="M 549.595792,532.500000 L 389.009305,532.500000 "/>
        <path style="fill:none;stroke-width:0.280000;stroke-linecap:round;stroke-linejoin:round;stroke-opacity:1;stroke:#999999;" d="M 549.595792,287.500000 L 389.009305,287.500000 "/>
        <path style="fill:none;stroke-width:0.280000;stroke-linecap:round;stroke-linejoin:round;stroke-opacity:1;stroke:#999999;" d="M 394.009305,532.500000 L 396.509305,524.409830 "/>
        <path style="fill:none;stroke-width:0.280000;stroke-linecap:round;stroke-linejoin:round;stroke-opacity:1;stroke:#999999;" d="M 396.509305,524.409830 L 391.509305,524.409830 "/>
        <path style="fill:none;stroke-width:0.280000;stroke-linecap:round;stroke-linejoin:round;stroke-opacity:1;stroke:#999999;" d="M 391.509305,524.409830 L 394.009305,532.500000 "/>
        <path style="fill:none;stroke-width:0.280000;stroke-linecap:round;stroke-linejoin:round;stroke-opacity:1;stroke:#999999;" d="M 394.009305,287.500000 L 391.509305,295.590170 "/>
        <path style="fill:none;stroke-width:0.280000;stroke-linecap:round;stroke-linejoin:round;stroke-opacity:1;stroke:#999999;" d="M 391.509305,295.590170 L 396.509305,295.590170 "/>
        <path style="fill:none;stroke-width:0.280000;stroke-linecap:round;stroke-linejoin:round;stroke-opacity:1;stroke:#999999;" d="M 396.509305,295.590170 L 394.009305,287.500000 "/>
        <path style="fill:none;stroke-width:0.280000;stroke-linecap:round;stroke-linejoin:round;stroke-opacity:1;stroke:#999999;" d="M 760.060484,155.600981 C 759.417151,155.615648 758.792484,155.358315 758.346484,154.894981 C 757.879818,154.447648 757.618484,153.821648 757.630484,153.174981 C 757.633151,152.524315 757.910484,151.900315 758.392484,151.462981 C 758.843151,151.018981 759.459818,150.776315 760.092484,150.792981 C 760.733818,150.763648 761.361818,151.007648 761.814484,151.462981 C 762.289151,151.917648 762.557818,152.551648 762.554484,153.208981 C 762.554484,153.848315 762.285151,154.462315 761.814484,154.894981 C 761.359151,155.370315 760.717818,155.628315 760.060484,155.600981 C 759.349818,155.593648 758.660484,155.870315 758.152484,156.366981 C 757.627818,156.864981 757.329818,157.561648 757.330484,158.284981 C 757.319818,159.006981 757.612484,159.706315 758.134484,160.204981 C 758.635818,160.718315 759.329151,161.008315 760.046484,161.004981 C 760.765818,161.013648 761.464484,160.736315 761.982484,160.236981 C 762.508484,159.732315 762.805151,159.027648 762.798484,158.298981 C 762.806484,157.580981 762.519818,156.885648 762.008484,156.380981 C 761.496484,155.863648 760.787818,155.579648 760.060484,155.600981 "/>
        <path style="fill:none;stroke-width:0.280000;stroke-linecap:round;stroke-linejoin:round;stroke-opacity:1;stroke:#999999;" d="M 765.510484,156.140981 C 766.068484,155.188981 767.113818,154.618981 768.216484,154.664981 C 769.058484,154.658315 769.870484,155.002981 770.450484,155.612981 C 771.054484,156.210981 771.392484,157.034981 771.382484,157.884981 C 771.380484,158.732981 771.031151,159.548981 770.418484,160.134981 C 769.845818,160.748315 769.035818,161.094315 768.196484,161.084981 C 767.341151,161.102315 766.513151,160.751648 765.930484,160.124981 C 765.321818,159.536981 764.983151,158.716981 764.998484,157.870981 C 764.997151,157.259648 765.171818,156.656315 765.500484,156.140981 L 768.862484,150.876981 "/>
        <path style="fill:none;stroke-width:0.280000;stroke-linecap:round;stroke-linejoin:round;stroke-opacity:1;stroke:#999999;" d="M 776.616484,150.870981 C 777.553818,150.937648 778.381151,151.526315 778.751151,152.390315 C 779.311151,153.497648 779.595151,154.732981 779.576484,155.972981 C 779.595818,157.225648 779.305818,158.473648 778.735818,159.589648 C 778.316484,160.433648 777.476484,160.997648 776.536484,161.064981 C 775.613151,160.940981 774.803151,160.370315 774.375151,159.542981 C 773.835151,158.423648 773.563151,157.183648 773.584484,155.940981 C 773.575818,154.662315 773.875151,153.390981 774.453151,152.250315 C 774.898484,151.460981 775.713151,150.941648 776.616484,150.870981 "/>
        <path style="fill:none;stroke-width:0.280000;stroke-linecap:round;stroke-linejoin:round;stroke-opacity:1;stroke:#999999;" d="M 781.776484,160.316981 L 781.776484,160.892981 "/>
        <path style="fill:none;stroke-width:0.280000;stroke-linecap:round;stroke-linejoin:round;stroke-opacity:1;stroke:#999999;" d="M 787.010484,150.870981 C 787.947818,150.937648 788.775151,151.526315 789.145151,152.390315 C 789.705151,153.497648 789.989151,154.732981 789.970484,155.972981 C 789.989818,157.225648 789.699818,158.473648 789.129818,159.589648 C 788.710484,160.433648 787.870484,160.997648 786.930484,161.064981 C 786.007151,160.940981 785.197151,160.370315 784.769151,159.542981 C 784.229151,158.423648 783.957151,157.183648 783.978484,155.940981 C 783.969818,154.662315 784.269151,153.390981 784.847151,152.250315 C 785.292484,151.460981 786.107151,150.941648 787.010484,150.870981 "/>
        <path style="fill:none;stroke-width:0.280000;stroke-linecap:round;stroke-linejoin:round;stroke-opacity:1;stroke:#999999;" d="M 1210.263830,155.745551 L 791.221391,155.745551 "/>
        <path style="fill:none;stroke-width:0.280000;stroke-linecap:round;stroke-linejoin:round;stroke-opacity:1;stroke:#999999;" d="M 756.080371,155.745551 L 366.444170,155.745551 "/>
        <path style="fill:none;stroke-width:0.280000;stroke-linecap:round;stroke-linejoin:round;stroke-opacity:1;stroke:#999999;" d="M 1218.354000,234.407977 L 1218.354000,150.745551 "/>
        <path style="fill:none;stroke-width:0.280000;stroke-linecap:round;stroke-linejoin:round;stroke-opacity:1;stroke:#999999;" d="M 358.354000,234.407977 L 358.354000,150.745551 "/>
        <path style="fill:none;stroke-width:0.280000;stroke-linecap:round;stroke-linejoin:round;stroke-opacity:1;stroke:#999999;" d="M 1218.354000,155.745551 L 1210.263830,153.245551 "/>
        <path style="fill:none;stroke-width:0.280000;stroke-linecap:round;stroke-linejoin:round;stroke-opacity:1;stroke:#999999;" d="M 1210.263830,153.245551 L 1210.263830,158.245551 "/>
        <path style="fill:none;stroke-width:0.280000;stroke-linecap:round;stroke-linejoin:round;stroke-opacity:1;stroke:#999999;" d="M 1210.263830,158.245551 L 1218.354000,155.745551 "/>
        <path style="fill:none;stroke-width:0.280000;stroke-linecap:round;stroke-linejoin:round;stroke-opacity:1;stroke:#999999;" d="M 358.354000,155.745551 L 366.444170,158.245551 "/>
        <path style="fill:none;stroke-width:0.280000;stroke-linecap:round;stroke-linejoin:round;stroke-opacity:1;stroke:#999999;" d="M 366.444170,158.245551 L 366.444170,153.245551 "/>
        <path style="fill:none;stroke-width:0.280000;stroke-linecap:round;stroke-linejoin:round;stroke-opacity:1;stroke:#999999;" d="M 366.444170,153.245551 L 358.354000,155.745551 "/>
        <path style="fill:none;stroke-width:0.280000;stroke-linecap:round;stroke-linejoin:round;stroke-opacity:1;stroke:#999999;" d="M 96.320959,275.707322 C 96.427626,275.265989 96.671626,274.866655 97.014959,274.569322 C 97.452292,274.122655 98.061626,273.877322 98.686959,273.897322 C 99.346292,273.879322 99.988959,274.131989 100.458959,274.595322 C 100.909626,275.041989 101.158292,275.658655 101.142959,276.293322 C 101.153626,276.946655 100.894959,277.579989 100.430959,278.039322 C 99.989626,278.501322 99.369626,278.755989 98.730959,278.737322 C 99.417626,278.739322 100.078959,279.018655 100.558959,279.509322 C 101.076959,280.007989 101.368292,280.702655 101.360959,281.421322 C 101.362959,282.134655 101.067626,282.821322 100.548959,283.311322 C 100.041626,283.813989 99.349626,284.095989 98.634959,284.091322 C 97.914959,284.101989 97.216292,283.816655 96.710959,283.303322 C 96.344959,282.916655 96.102959,282.424655 96.018959,281.899322 "/>
        <path style="fill:none;stroke-width:0.280000;stroke-linecap:round;stroke-linejoin:round;stroke-opacity:1;stroke:#999999;" d="M 103.862959,275.707322 C 103.969626,275.265989 104.213626,274.866655 104.556959,274.569322 C 104.994292,274.122655 105.603626,273.877322 106.228959,273.897322 C 106.888292,273.879322 107.530959,274.131989 108.000959,274.595322 C 108.451626,275.041989 108.700292,275.658655 108.684959,276.293322 C 108.695626,276.946655 108.436959,277.579989 107.972959,278.039322 C 107.531626,278.501322 106.911626,278.755989 106.272959,278.737322 C 106.959626,278.739322 107.620959,279.018655 108.100959,279.509322 C 108.618959,280.007989 108.910292,280.702655 108.902959,281.421322 C 108.904959,282.134655 108.609626,282.821322 108.090959,283.311322 C 107.583626,283.813989 106.891626,284.095989 106.176959,284.091322 C 105.456959,284.101989 104.758292,283.816655 104.252959,283.303322 C 103.886959,282.916655 103.644959,282.424655 103.560959,281.899322 "/>
        <path style="fill:none;stroke-width:0.280000;stroke-linecap:round;stroke-linejoin:round;stroke-opacity:1;stroke:#999999;" d="M 114.136959,273.975322 C 115.074292,274.041989 115.901626,274.630655 116.271626,275.494655 C 116.831626,276.601989 117.115626,277.837322 117.096959,279.077322 C 117.116292,280.329989 116.826292,281.577989 116.256292,282.693989 C 115.836959,283.537989 114.996959,284.101989 114.056959,284.169322 C 113.133626,284.045322 112.323626,283.474655 111.895626,282.647322 C 111.355626,281.527989 111.083626,280.287989 111.104959,279.045322 C 111.096292,277.766655 111.395626,276.495322 111.973626,275.354655 C 112.418959,274.565322 113.233626,274.045989 114.136959,273.975322 "/>
        <path style="fill:none;stroke-width:0.280000;stroke-linecap:round;stroke-linejoin:round;stroke-opacity:1;stroke:#999999;" d="M 119.296959,283.421322 L 119.296959,283.997322 "/>
        <path style="fill:none;stroke-width:0.280000;stroke-linecap:round;stroke-linejoin:round;stroke-opacity:1;stroke:#999999;" d="M 124.530959,273.975322 C 125.468292,274.041989 126.295626,274.630655 126.665626,275.494655 C 127.225626,276.601989 127.509626,277.837322 127.490959,279.077322 C 127.510292,280.329989 127.220292,281.577989 126.650292,282.693989 C 126.230959,283.537989 125.390959,284.101989 124.450959,284.169322 C 123.527626,284.045322 122.717626,283.474655 122.289626,282.647322 C 121.749626,281.527989 121.477626,280.287989 121.498959,279.045322 C 121.490292,277.766655 121.789626,276.495322 122.367626,275.354655 C 122.812959,274.565322 123.627626,274.045989 124.530959,273.975322 "/>
        <path style="fill:none;stroke-width:0.280000;stroke-linecap:round;stroke-linejoin:round;stroke-opacity:1;stroke:#999999;" d="M 111.755412,554.067115 L 111.755412,285.419322 "/>
        <path style="fill:none;stroke-width:0.280000;stroke-linecap:round;stroke-linejoin:round;stroke-opacity:1;stroke:#999999;" d="M 111.755412,272.646222 L 111.755412,240.247455 "/>
        <path style="fill:none;stroke-width:0.280000;stroke-linecap:round;stroke-linejoin:round;stroke-opacity:1;stroke:#999999;" d="M 167.209515,562.157285 L 106.755412,562.157285 "/>
        <path style="fill:none;stroke-width:0.280000;stroke-linecap:round;stroke-linejoin:round;stroke-opacity:1;stroke:#999999;" d="M 167.209515,232.157285 L 106.755412,232.157285 "/>
        <path style="fill:none;stroke-width:0.280000;stroke-linecap:round;stroke-linejoin:round;stroke-opacity:1;stroke:#999999;" d="M 111.755412,562.157285 L 114.255412,554.067115 "/>
        <path style="fill:none;stroke-width:0.280000;stroke-linecap:round;stroke-linejoin:round;stroke-opacity:1;stroke:#999999;" d="M 114.255412,554.067115 L 109.255412,554.067115 "/>
        <path style="fill:none;stroke-width:0.280000;stroke-linecap:round;stroke-linejoin:round;stroke-opacity:1;stroke:#999999;" d="M 109.255412,554.067115 L 111.755412,562.157285 "/>
        <path style="fill:none;stroke-width:0.280000;stroke-linecap:round;stroke-linejoin:round;stroke-opacity:1;stroke:#999999;" d="M 111.755412,232.157285 L 109.255412,240.247455 "/>
        <path style="fill:none;stroke-width:0.280000;stroke-linecap:round;stroke-linejoin:round;stroke-opacity:1;stroke:#999999;" d="M 109.255412,240.247455 L 114.255412,240.247455 "/>
        <path style="fill:none;stroke-width:0.280000;stroke-linecap:round;stroke-linejoin:round;stroke-opacity:1;stroke:#999999;" d="M 114.255412,240.247455 L 111.755412,232.157285 "/>
        <path style="fill:none;stroke-width:0.280000;stroke-linecap:round;stroke-linejoin:round;stroke-opacity:1;stroke:#999999;" d="M 333.318772,250.264855 L 326.466772,250.264855 L 331.836772,241.928855 L 331.836772,251.964855 "/>
        <path style="fill:none;stroke-width:0.280000;stroke-linecap:round;stroke-linejoin:round;stroke-opacity:1;stroke:#999999;" d="M 338.552772,241.942855 C 339.490105,242.009522 340.317439,242.598188 340.687439,243.462188 C 341.247439,244.569522 341.531439,245.804855 341.512772,247.044855 C 341.532105,248.297522 341.242105,249.545522 340.672105,250.661522 C 340.252772,251.505522 339.412772,252.069522 338.472772,252.136855 C 337.549439,252.012855 336.739439,251.442188 336.311439,250.614855 C 335.771439,249.495522 335.499439,248.255522 335.520772,247.012855 C 335.512105,245.734188 335.811439,244.462855 336.389439,243.322188 C 336.834772,242.532855 337.649439,242.013522 338.552772,241.942855 "/>
        <path style="fill:none;stroke-width:0.280000;stroke-linecap:round;stroke-linejoin:round;stroke-opacity:1;stroke:#999999;" d="M 346.746772,241.942855 C 347.684105,242.009522 348.511439,242.598188 348.881439,243.462188 C 349.441439,244.569522 349.725439,245.804855 349.706772,247.044855 C 349.726105,248.297522 349.436105,249.545522 348.866105,250.661522 C 348.446772,251.505522 347.606772,252.069522 346.666772,252.136855 C 345.743439,252.012855 344.933439,251.442188 344.505439,250.614855 C 343.965439,249.495522 343.693439,248.255522 343.714772,247.012855 C 343.706105,245.734188 344.005439,244.462855 344.583439,243.322188 C 345.028772,242.532855 345.843439,242.013522 346.746772,241.942855 "/>
        <path style="fill:none;stroke-width:0.280000;stroke-linecap:round;stroke-linejoin:round;stroke-opacity:1;stroke:#999999;" d="M 351.906772,251.388855 L 351.906772,251.964855 "/>
        <path style="fill:none;stroke-width:0.280000;stroke-linecap:round;stroke-linejoin:round;stroke-opacity:1;stroke:#999999;" d="M 357.140772,241.942855 C 358.078105,242.009522 358.905439,242.598188 359.275439,243.462188 C 359.835439,244.569522 360.119439,245.804855 360.100772,247.044855 C 360.120105,248.297522 359.830105,249.545522 359.260105,250.661522 C 358.840772,251.505522 358.000772,252.069522 357.060772,252.136855 C 356.137439,252.012855 355.327439,251.442188 354.899439,250.614855 C 354.359439,249.495522 354.087439,248.255522 354.108772,247.012855 C 354.100105,245.734188 354.399439,244.462855 354.977439,243.322188 C 355.422772,242.532855 356.237439,242.013522 357.140772,241.942855 "/>
        <path style="fill:none;stroke-width:0.280000;stroke-linecap:round;stroke-linejoin:round;stroke-opacity:1;stroke:#999999;" d="M 343.284226,601.909830 L 343.284226,253.386855 "/>
        <path style="fill:none;stroke-width:0.280000;stroke-linecap:round;stroke-linejoin:round;stroke-opacity:1;stroke:#999999;" d="M 343.284226,240.678855 L 343.284226,218.090170 "/>
        <path style="fill:none;stroke-width:0.280000;stroke-linecap:round;stroke-linejoin:round;stroke-opacity:1;stroke:#999999;" d="M 400.078190,610.000000 L 338.284226,610.000000 "/>
        <path style="fill:none;stroke-width:0.280000;stroke-linecap:round;stroke-linejoin:round;stroke-opacity:1;stroke:#999999;" d="M 400.078190,210.000000 L 338.284226,210.000000 "/>
        <path style="fill:none;stroke-width:0.280000;stroke-linecap:round;stroke-linejoin:round;stroke-opacity:1;stroke:#999999;" d="M 343.284226,610.000000 L 345.784226,601.909830 "/>
        <path style="fill:none;stroke-width:0.280000;stroke-linecap:round;stroke-linejoin:round;stroke-opacity:1;stroke:#999999;" d="M 345.784226,601.909830 L 340.784226,601.909830 "/>
        <path style="fill:none;stroke-width:0.280000;stroke-linecap:round;stroke-linejoin:round;stroke-opacity:1;stroke:#999999;" d="M 340.784226,601.909830 L 343.284226,610.000000 "/>
        <path style="fill:none;stroke-width:0.280000;stroke-linecap:round;stroke-linejoin:round;stroke-opacity:1;stroke:#999999;" d="M 343.284226,210.000000 L 340.784226,218.090170 "/>
        <path style="fill:none;stroke-width:0.280000;stroke-linecap:round;stroke-linejoin:round;stroke-opacity:1;stroke:#999999;" d="M 340.784226,218.090170 L 345.784226,218.090170 "/>
        <path style="fill:none;stroke-width:0.280000;stroke-linecap:round;stroke-linejoin:round;stroke-opacity:1;stroke:#999999;" d="M 345.784226,218.090170 L 343.284226,210.000000 "/>
        <path style="fill:none;stroke-width:0.280000;stroke-linecap:round;stroke-linejoin:round;stroke-opacity:1;stroke:#999999;" d="M 813.983004,538.519009 C 813.386337,539.231675 812.502337,539.653009 811.573004,539.667009 C 810.725004,539.681675 809.903671,539.337675 809.319004,538.723009 C 808.709671,538.137675 808.370337,537.318342 808.387004,536.473009 C 808.381671,535.637675 808.727671,534.832342 809.337004,534.261009 C 809.929671,533.648342 810.757004,533.307675 811.609004,533.325009 C 812.436337,533.309009 813.238337,533.637675 813.817004,534.229009 C 814.411671,534.825009 814.745671,535.639009 814.741004,536.481009 C 814.740337,537.056342 814.577004,537.624342 814.273004,538.113009 L 810.953004,543.407009 "/>
        <path style="fill:none;stroke-width:0.280000;stroke-linecap:round;stroke-linejoin:round;stroke-opacity:1;stroke:#999999;" d="M 819.975004,533.385009 C 820.912337,533.451675 821.739671,534.040342 822.109671,534.904342 C 822.669671,536.011675 822.953671,537.247009 822.935004,538.487009 C 822.954337,539.739675 822.664337,540.987675 822.094337,542.103675 C 821.675004,542.947675 820.835004,543.511675 819.895004,543.579009 C 818.971671,543.455009 818.161671,542.884342 817.733671,542.057009 C 817.193671,540.937675 816.921671,539.697675 816.943004,538.455009 C 816.934337,537.176342 817.233671,535.905009 817.811671,534.764342 C 818.257004,533.975009 819.071671,533.455675 819.975004,533.385009 "/>
        <path style="fill:none;stroke-width:0.280000;stroke-linecap:round;stroke-linejoin:round;stroke-opacity:1;stroke:#999999;" d="M 825.135004,542.831009 L 825.135004,543.407009 "/>
        <path style="fill:none;stroke-width:0.280000;stroke-linecap:round;stroke-linejoin:round;stroke-opacity:1;stroke:#999999;" d="M 830.369004,533.385009 C 831.306337,533.451675 832.133671,534.040342 832.503671,534.904342 C 833.063671,536.011675 833.347671,537.247009 833.329004,538.487009 C 833.348337,539.739675 833.058337,540.987675 832.488337,542.103675 C 832.069004,542.947675 831.229004,543.511675 830.289004,543.579009 C 829.365671,543.455009 828.555671,542.884342 828.127671,542.057009 C 827.587671,540.937675 827.315671,539.697675 827.337004,538.455009 C 827.328337,537.176342 827.627671,535.905009 828.205671,534.764342 C 828.651004,533.975009 829.465671,533.455675 830.369004,533.385009 "/>
        <path style="fill:none;stroke-width:0.280000;stroke-linecap:round;stroke-linejoin:round;stroke-opacity:1;stroke:#999999;" d="M 820.858719,575.189549 L 820.858719,544.829009 "/>
        <path style="fill:none;stroke-width:0.280000;stroke-linecap:round;stroke-linejoin:round;stroke-opacity:1;stroke:#999999;" d="M 820.858719,532.074430 L 820.858719,501.369889 "/>
        <path style="fill:none;stroke-width:0.280000;stroke-linecap:round;stroke-linejoin:round;stroke-opacity:1;stroke:#999999;" d="M 887.639628,583.279719 L 815.858719,583.279719 "/>
        <path style="fill:none;stroke-width:0.280000;stroke-linecap:round;stroke-linejoin:round;stroke-opacity:1;stroke:#999999;" d="M 887.639628,493.279719 L 815.858719,493.279719 "/>
        <path style="fill:none;stroke-width:0.280000;stroke-linecap:round;stroke-linejoin:round;stroke-opacity:1;stroke:#999999;" d="M 820.858719,583.279719 L 823.358719,575.189549 "/>
        <path style="fill:none;stroke-width:0.280000;stroke-linecap:round;stroke-linejoin:round;stroke-opacity:1;stroke:#999999;" d="M 823.358719,575.189549 L 818.358719,575.189549 "/>
        <path style="fill:none;stroke-width:0.280000;stroke-linecap:round;stroke-linejoin:round;stroke-opacity:1;stroke:#999999;" d="M 818.358719,575.189549 L 820.858719,583.279719 "/>
        <path style="fill:none;stroke-width:0.280000;stroke-linecap:round;stroke-linejoin:round;stroke-opacity:1;stroke:#999999;" d="M 820.858719,493.279719 L 818.358719,501.369889 "/>
        <path style="fill:none;stroke-width:0.280000;stroke-linecap:round;stroke-linejoin:round;stroke-opacity:1;stroke:#999999;" d="M 818.358719,501.369889 L 823.358719,501.369889 "/>
        <path style="fill:none;stroke-width:0.280000;stroke-linecap:round;stroke-linejoin:round;stroke-opacity:1;stroke:#999999;" d="M 823.358719,501.369889 L 820.858719,493.279719 "/>
        <path style="fill:none;stroke-width:0.280000;stroke-linecap:round;stroke-linejoin:round;stroke-opacity:1;stroke:#999999;" d="M 1133.005546,348.665240 L 1134.609546,347.773240 L 1134.609546,357.813240 "/>
        <path style="fill:none;stroke-width:0.280000;stroke-linecap:round;stroke-linejoin:round;stroke-opacity:1;stroke:#999999;" d="M 1143.661546,356.113240 L 1136.809546,356.113240 L 1142.179546,347.777240 L 1142.179546,357.813240 "/>
        <path style="fill:none;stroke-width:0.280000;stroke-linecap:round;stroke-linejoin:round;stroke-opacity:1;stroke:#999999;" d="M 1151.237546,347.795240 L 1147.331546,347.795240 L 1146.485546,352.473240 C 1147.018213,351.969240 1147.736880,351.701240 1148.469546,351.733240 C 1149.313546,351.712574 1150.133546,352.047240 1150.721546,352.653240 C 1151.294213,353.226574 1151.612213,354.013240 1151.599546,354.823240 C 1151.600880,355.618574 1151.277546,356.385907 1150.707546,356.941240 C 1150.124880,357.553907 1149.307546,357.899240 1148.461546,357.889240 C 1147.392880,357.943907 1146.379546,357.381240 1145.861546,356.445240 "/>
        <path style="fill:none;stroke-width:0.280000;stroke-linecap:round;stroke-linejoin:round;stroke-opacity:1;stroke:#999999;" d="M 1153.799546,357.237240 L 1153.799546,357.813240 "/>
        <path style="fill:none;stroke-width:0.280000;stroke-linecap:round;stroke-linejoin:round;stroke-opacity:1;stroke:#999999;" d="M 1159.033546,347.791240 C 1159.970880,347.857907 1160.798213,348.446574 1161.168213,349.310574 C 1161.728213,350.417907 1162.012213,351.653240 1161.993546,352.893240 C 1162.012880,354.145907 1161.722880,355.393907 1161.152880,356.509907 C 1160.733546,357.353907 1159.893546,357.917907 1158.953546,357.985240 C 1158.030213,357.861240 1157.220213,357.290574 1156.792213,356.463240 C 1156.252213,355.343907 1155.980213,354.103907 1156.001546,352.861240 C 1155.992880,351.582574 1156.292213,350.311240 1156.870213,349.170574 C 1157.315546,348.381240 1158.130213,347.861907 1159.033546,347.791240 "/>
        <path style="fill:none;stroke-width:0.280000;stroke-linecap:round;stroke-linejoin:round;stroke-opacity:1;stroke:#999999;" d="M 1083.090170,352.707240 L 1131.755546,352.707240 "/>
        <path style="fill:none;stroke-width:0.280000;stroke-linecap:round;stroke-linejoin:round;stroke-opacity:1;stroke:#999999;" d="M 1163.244454,352.707240 L 1211.909830,352.707240 "/>
        <path style="fill:none;stroke-width:0.280000;stroke-linecap:round;stroke-linejoin:round;stroke-opacity:1;stroke:#999999;" d="M 1075.000000,390.000000 L 1075.000000,347.707240 "/>
        <path style="fill:none;stroke-width:0.280000;stroke-linecap:round;stroke-linejoin:round;stroke-opacity:1;stroke:#999999;" d="M 1220.000000,390.000000 L 1220.000000,347.707240 "/>
        <path style="fill:none;stroke-width:0.280000;stroke-linecap:round;stroke-linejoin:round;stroke-opacity:1;stroke:#999999;" d="M 1075.000000,352.707240 L 1083.090170,355.207240 "/>
        <path style="fill:none;stroke-width:0.280000;stroke-linecap:round;stroke-linejoin:round;stroke-opacity:1;stroke:#999999;" d="M 1083.090170,355.207240 L 1083.090170,350.207240 "/>
        <path style="fill:none;stroke-width:0.280000;stroke-linecap:round;stroke-linejoin:round;stroke-opacity:1;stroke:#999999;" d="M 1083.090170,350.207240 L 1075.000000,352.707240 "/>
        <path style="fill:none;stroke-width:0.280000;stroke-linecap:round;stroke-linejoin:round;stroke-opacity:1;stroke:#999999;" d="M 1220.000000,352.707240 L 1211.909830,350.207240 "/>
        <path style="fill:none;stroke-width:0.280000;stroke-linecap:round;stroke-linejoin:round;stroke-opacity:1;stroke:#999999;" d="M 1211.909830,350.207240 L 1211.909830,355.207240 "/>
        <path style="fill:none;stroke-width:0.280000;stroke-linecap:round;stroke-linejoin:round;stroke-opacity:1;stroke:#999999;" d="M 1211.909830,355.207240 L 1220.000000,352.707240 "/>
        <path style="fill:none;stroke-width:0.280000;stroke-linecap:round;stroke-linejoin:round;stroke-opacity:1;stroke:#999999;" d="M 934.089546,350.414716 C 934.084880,349.698716 934.380880,349.008049 934.903546,348.518716 C 935.406880,348.013383 936.098880,347.732716 936.811546,347.744716 C 937.519546,347.725383 938.209546,348.000716 938.709546,348.502716 C 939.226213,349.010716 939.512880,349.714049 939.499546,350.438716 C 939.505546,351.090049 939.267546,351.725383 938.835546,352.212716 L 933.973546,357.842716 L 939.475546,357.842716 "/>
        <path style="fill:none;stroke-width:0.280000;stroke-linecap:round;stroke-linejoin:round;stroke-opacity:1;stroke:#999999;" d="M 947.075546,347.824716 L 943.169546,347.824716 L 942.323546,352.502716 C 942.856213,351.998716 943.574880,351.730716 944.307546,351.762716 C 945.151546,351.742049 945.971546,352.076716 946.559546,352.682716 C 947.132213,353.256049 947.450213,354.042716 947.437546,354.852716 C 947.438880,355.648049 947.115546,356.415383 946.545546,356.970716 C 945.962880,357.583383 945.145546,357.928716 944.299546,357.918716 C 943.230880,357.973383 942.217546,357.410716 941.699546,356.474716 "/>
        <path style="fill:none;stroke-width:0.280000;stroke-linecap:round;stroke-linejoin:round;stroke-opacity:1;stroke:#999999;" d="M 952.671546,347.820716 C 953.608880,347.887383 954.436213,348.476049 954.806213,349.340049 C 955.366213,350.447383 955.650213,351.682716 955.631546,352.922716 C 955.650880,354.175383 955.360880,355.423383 954.790880,356.539383 C 954.371546,357.383383 953.531546,357.947383 952.591546,358.014716 C 951.668213,357.890716 950.858213,357.320049 950.430213,356.492716 C 949.890213,355.373383 949.618213,354.133383 949.639546,352.890716 C 949.630880,351.612049 949.930213,350.340716 950.508213,349.200049 C 950.953546,348.410716 951.768213,347.891383 952.671546,347.820716 "/>
        <path style="fill:none;stroke-width:0.280000;stroke-linecap:round;stroke-linejoin:round;stroke-opacity:1;stroke:#999999;" d="M 957.831546,357.266716 L 957.831546,357.842716 "/>
        <path style="fill:none;stroke-width:0.280000;stroke-linecap:round;stroke-linejoin:round;stroke-opacity:1;stroke:#999999;" d="M 963.065546,347.820716 C 964.002880,347.887383 964.830213,348.476049 965.200213,349.340049 C 965.760213,350.447383 966.044213,351.682716 966.025546,352.922716 C 966.044880,354.175383 965.754880,355.423383 965.184880,356.539383 C 964.765546,357.383383 963.925546,357.947383 962.985546,358.014716 C 962.062213,357.890716 961.252213,357.320049 960.824213,356.492716 C 960.284213,355.373383 960.012213,354.133383 960.033546,352.890716 C 960.024880,351.612049 960.324213,350.340716 960.902213,349.200049 C 961.347546,348.410716 962.162213,347.891383 963.065546,347.820716 "/>
        <path style="fill:none;stroke-width:0.280000;stroke-linecap:round;stroke-linejoin:round;stroke-opacity:1;stroke:#999999;" d="M 833.090170,352.707240 L 932.723546,352.707240 "/>
        <path style="fill:none;stroke-width:0.280000;stroke-linecap:round;stroke-linejoin:round;stroke-opacity:1;stroke:#999999;" d="M 967.276454,352.707240 L 1066.909830,352.707240 "/>
        <path style="fill:none;stroke-width:0.280000;stroke-linecap:round;stroke-linejoin:round;stroke-opacity:1;stroke:#999999;" d="M 825.000000,390.000000 L 825.000000,347.707240 "/>
        <path style="fill:none;stroke-width:0.280000;stroke-linecap:round;stroke-linejoin:round;stroke-opacity:1;stroke:#999999;" d="M 1075.000000,390.000000 L 1075.000000,347.707240 "/>
        <path style="fill:none;stroke-width:0.280000;stroke-linecap:round;stroke-linejoin:round;stroke-opacity:1;stroke:#999999;" d="M 825.000000,352.707240 L 833.090170,355.207240 "/>
        <path style="fill:none;stroke-width:0.280000;stroke-linecap:round;stroke-linejoin:round;stroke-opacity:1;stroke:#999999;" d="M 833.090170,355.207240 L 833.090170,350.207240 "/>
        <path style="fill:none;stroke-width:0.280000;stroke-linecap:round;stroke-linejoin:round;stroke-opacity:1;stroke:#999999;" d="M 833.090170,350.207240 L 825.000000,352.707240 "/>
        <path style="fill:none;stroke-width:0.280000;stroke-linecap:round;stroke-linejoin:round;stroke-opacity:1;stroke:#999999;" d="M 1075.000000,352.707240 L 1066.909830,350.207240 "/>
        <path style="fill:none;stroke-width:0.280000;stroke-linecap:round;stroke-linejoin:round;stroke-opacity:1;stroke:#999999;" d="M 1066.909830,350.207240 L 1066.909830,355.207240 "/>
        <path style="fill:none;stroke-width:0.280000;stroke-linecap:round;stroke-linejoin:round;stroke-opacity:1;stroke:#999999;" d="M 1066.909830,355.207240 L 1075.000000,352.707240 "/>
        <path style="fill:none;stroke-width:0.280000;stroke-linecap:round;stroke-linejoin:round;stroke-opacity:1;stroke:#999999;" d="M 780.917427,406.846550 C 781.024094,406.405216 781.268094,406.005883 781.611427,405.708550 C 782.048761,405.261883 782.658094,405.016550 783.283427,405.036550 C 783.942761,405.018550 784.585427,405.271216 785.055427,405.734550 C 785.506094,406.181216 785.754761,406.797883 785.739427,407.432550 C 785.750094,408.085883 785.491427,408.719216 785.027427,409.178550 C 784.586094,409.640550 783.966094,409.895216 783.327427,409.876550 C 784.014094,409.878550 784.675427,410.157883 785.155427,410.648550 C 785.673427,411.147216 785.964761,411.841883 785.957427,412.560550 C 785.959427,413.273883 785.664094,413.960550 785.145427,414.450550 C 784.638094,414.953216 783.946094,415.235216 783.231427,415.230550 C 782.511427,415.241216 781.812761,414.955883 781.307427,414.442550 C 780.941427,414.055883 780.699427,413.563883 780.615427,413.038550 "/>
        <path style="fill:none;stroke-width:0.280000;stroke-linecap:round;stroke-linejoin:round;stroke-opacity:1;stroke:#999999;" d="M 793.533427,405.118550 L 789.627427,405.118550 L 788.781427,409.796550 C 789.314094,409.292550 790.032761,409.024550 790.765427,409.056550 C 791.609427,409.035883 792.429427,409.370550 793.017427,409.976550 C 793.590094,410.549883 793.908094,411.336550 793.895427,412.146550 C 793.896761,412.941883 793.573427,413.709216 793.003427,414.264550 C 792.420761,414.877216 791.603427,415.222550 790.757427,415.212550 C 789.688761,415.267216 788.675427,414.704550 788.157427,413.768550 "/>
        <path style="fill:none;stroke-width:0.280000;stroke-linecap:round;stroke-linejoin:round;stroke-opacity:1;stroke:#999999;" d="M 796.095427,414.560550 L 796.095427,415.136550 "/>
        <path style="fill:none;stroke-width:0.280000;stroke-linecap:round;stroke-linejoin:round;stroke-opacity:1;stroke:#999999;" d="M 801.329427,405.114550 C 802.266761,405.181216 803.094094,405.769883 803.464094,406.633883 C 804.024094,407.741216 804.308094,408.976550 804.289427,410.216550 C 804.308761,411.469216 804.018761,412.717216 803.448761,413.833216 C 803.029427,414.677216 802.189427,415.241216 801.249427,415.308550 C 800.326094,415.184550 799.516094,414.613883 799.088094,413.786550 C 798.548094,412.667216 798.276094,411.427216 798.297427,410.184550 C 798.288761,408.905883 798.588094,407.634550 799.166094,406.493883 C 799.611427,405.704550 800.426094,405.185216 801.329427,405.114550 "/>
        <path style="fill:none;stroke-width:0.280000;stroke-linecap:round;stroke-linejoin:round;stroke-opacity:1;stroke:#999999;" d="M 792.452881,400.590170 L 792.452881,403.785450 "/>
        <path style="fill:none;stroke-width:0.280000;stroke-linecap:round;stroke-linejoin:round;stroke-opacity:1;stroke:#999999;" d="M 792.452881,416.558550 L 792.452881,419.409830 "/>
        <path style="fill:none;stroke-width:0.280000;stroke-linecap:round;stroke-linejoin:round;stroke-opacity:1;stroke:#999999;" d="M 822.500000,392.500000 L 787.452881,392.500000 "/>
        <path style="fill:none;stroke-width:0.280000;stroke-linecap:round;stroke-linejoin:round;stroke-opacity:1;stroke:#999999;" d="M 822.500000,427.500000 L 787.452881,427.500000 "/>
        <path style="fill:none;stroke-width:0.280000;stroke-linecap:round;stroke-linejoin:round;stroke-opacity:1;stroke:#999999;" d="M 792.452881,392.500000 L 789.952881,400.590170 "/>
        <path style="fill:none;stroke-width:0.280000;stroke-linecap:round;stroke-linejoin:round;stroke-opacity:1;stroke:#999999;" d="M 789.952881,400.590170 L 794.952881,400.590170 "/>
        <path style="fill:none;stroke-width:0.280000;stroke-linecap:round;stroke-linejoin:round;stroke-opacity:1;stroke:#999999;" d="M 794.952881,400.590170 L 792.452881,392.500000 "/>
        <path style="fill:none;stroke-width:0.280000;stroke-linecap:round;stroke-linejoin:round;stroke-opacity:1;stroke:#999999;" d="M 792.452881,427.500000 L 794.952881,419.409830 "/>
        <path style="fill:none;stroke-width:0.280000;stroke-linecap:round;stroke-linejoin:round;stroke-opacity:1;stroke:#999999;" d="M 794.952881,419.409830 L 789.952881,419.409830 "/>
        <path style="fill:none;stroke-width:0.280000;stroke-linecap:round;stroke-linejoin:round;stroke-opacity:1;stroke:#999999;" d="M 789.952881,419.409830 L 792.452881,427.500000 "/>
        <path style="fill:none;stroke-width:0.280000;stroke-linecap:round;stroke-linejoin:round;stroke-opacity:1;stroke:#999999;" d="M 945.517174,455.005043 L 947.121174,454.113043 L 947.121174,464.153043 "/>
        <path style="fill:none;stroke-width:0.280000;stroke-linecap:round;stroke-linejoin:round;stroke-opacity:1;stroke:#999999;" d="M 956.173174,462.453043 L 949.321174,462.453043 L 954.691174,454.117043 L 954.691174,464.153043 "/>
        <path style="fill:none;stroke-width:0.280000;stroke-linecap:round;stroke-linejoin:round;stroke-opacity:1;stroke:#999999;" d="M 961.407174,454.131043 C 962.344507,454.197710 963.171841,454.786376 963.541841,455.650376 C 964.101841,456.757710 964.385841,457.993043 964.367174,459.233043 C 964.386507,460.485710 964.096507,461.733710 963.526507,462.849710 C 963.107174,463.693710 962.267174,464.257710 961.327174,464.325043 C 960.403841,464.201043 959.593841,463.630376 959.165841,462.803043 C 958.625841,461.683710 958.353841,460.443710 958.375174,459.201043 C 958.366507,457.922376 958.665841,456.651043 959.243841,455.510376 C 959.689174,454.721043 960.503841,454.201710 961.407174,454.131043 "/>
        <path style="fill:none;stroke-width:0.280000;stroke-linecap:round;stroke-linejoin:round;stroke-opacity:1;stroke:#999999;" d="M 966.567174,463.577043 L 966.567174,464.153043 "/>
        <path style="fill:none;stroke-width:0.280000;stroke-linecap:round;stroke-linejoin:round;stroke-opacity:1;stroke:#999999;" d="M 971.801174,454.131043 C 972.738507,454.197710 973.565841,454.786376 973.935841,455.650376 C 974.495841,456.757710 974.779841,457.993043 974.761174,459.233043 C 974.780507,460.485710 974.490507,461.733710 973.920507,462.849710 C 973.501174,463.693710 972.661174,464.257710 971.721174,464.325043 C 970.797841,464.201043 969.987841,463.630376 969.559841,462.803043 C 969.019841,461.683710 968.747841,460.443710 968.769174,459.201043 C 968.760507,457.922376 969.059841,456.651043 969.637841,455.510376 C 970.083174,454.721043 970.897841,454.201710 971.801174,454.131043 "/>
        <path style="fill:none;stroke-width:0.280000;stroke-linecap:round;stroke-linejoin:round;stroke-opacity:1;stroke:#999999;" d="M 898.229798,459.047043 L 944.267174,459.047043 "/>
        <path style="fill:none;stroke-width:0.280000;stroke-linecap:round;stroke-linejoin:round;stroke-opacity:1;stroke:#999999;" d="M 976.012081,459.047043 L 1022.049458,459.047043 "/>
        <path style="fill:none;stroke-width:0.280000;stroke-linecap:round;stroke-linejoin:round;stroke-opacity:1;stroke:#999999;" d="M 890.139628,490.779719 L 890.139628,454.047043 "/>
        <path style="fill:none;stroke-width:0.280000;stroke-linecap:round;stroke-linejoin:round;stroke-opacity:1;stroke:#999999;" d="M 1030.139628,490.779719 L 1030.139628,454.047043 "/>
        <path style="fill:none;stroke-width:0.280000;stroke-linecap:round;stroke-linejoin:round;stroke-opacity:1;stroke:#999999;" d="M 890.139628,459.047043 L 898.229798,461.547043 "/>
        <path style="fill:none;stroke-width:0.280000;stroke-linecap:round;stroke-linejoin:round;stroke-opacity:1;stroke:#999999;" d="M 898.229798,461.547043 L 898.229798,456.547043 "/>
        <path style="fill:none;stroke-width:0.280000;stroke-linecap:round;stroke-linejoin:round;stroke-opacity:1;stroke:#999999;" d="M 898.229798,456.547043 L 890.139628,459.047043 "/>
        <path style="fill:none;stroke-width:0.280000;stroke-linecap:round;stroke-linejoin:round;stroke-opacity:1;stroke:#999999;" d="M 1030.139628,459.047043 L 1022.049458,456.547043 "/>
        <path style="fill:none;stroke-width:0.280000;stroke-linecap:round;stroke-linejoin:round;stroke-opacity:1;stroke:#999999;" d="M 1022.049458,456.547043 L 1022.049458,461.547043 "/>
        <path style="fill:none;stroke-width:0.280000;stroke-linecap:round;stroke-linejoin:round;stroke-opacity:1;stroke:#999999;" d="M 1022.049458,461.547043 L 1030.139628,459.047043 "/>
        <path style="fill:none;stroke-width:0.280000;stroke-linecap:round;stroke-linejoin:round;stroke-opacity:1;stroke:#999999;" d="M 1092.520416,507.707476 C 1092.515750,506.991476 1092.811750,506.300809 1093.334416,505.811476 C 1093.837750,505.306142 1094.529750,505.025476 1095.242416,505.037476 C 1095.950416,505.018142 1096.640416,505.293476 1097.140416,505.795476 C 1097.657083,506.303476 1097.943750,507.006809 1097.930416,507.731476 C 1097.936416,508.382809 1097.698416,509.018142 1097.266416,509.505476 L 1092.404416,515.135476 L 1097.906416,515.135476 "/>
        <path style="fill:none;stroke-width:0.280000;stroke-linecap:round;stroke-linejoin:round;stroke-opacity:1;stroke:#999999;" d="M 1103.164416,505.113476 C 1104.101750,505.180142 1104.929083,505.768809 1105.299083,506.632809 C 1105.859083,507.740142 1106.143083,508.975476 1106.124416,510.215476 C 1106.143750,511.468142 1105.853750,512.716142 1105.283750,513.832142 C 1104.864416,514.676142 1104.024416,515.240142 1103.084416,515.307476 C 1102.161083,515.183476 1101.351083,514.612809 1100.923083,513.785476 C 1100.383083,512.666142 1100.111083,511.426142 1100.132416,510.183476 C 1100.123750,508.904809 1100.423083,507.633476 1101.001083,506.492809 C 1101.446416,505.703476 1102.261083,505.184142 1103.164416,505.113476 "/>
        <path style="fill:none;stroke-width:0.280000;stroke-linecap:round;stroke-linejoin:round;stroke-opacity:1;stroke:#999999;" d="M 1111.358416,505.113476 C 1112.295750,505.180142 1113.123083,505.768809 1113.493083,506.632809 C 1114.053083,507.740142 1114.337083,508.975476 1114.318416,510.215476 C 1114.337750,511.468142 1114.047750,512.716142 1113.477750,513.832142 C 1113.058416,514.676142 1112.218416,515.240142 1111.278416,515.307476 C 1110.355083,515.183476 1109.545083,514.612809 1109.117083,513.785476 C 1108.577083,512.666142 1108.305083,511.426142 1108.326416,510.183476 C 1108.317750,508.904809 1108.617083,507.633476 1109.195083,506.492809 C 1109.640416,505.703476 1110.455083,505.184142 1111.358416,505.113476 "/>
        <path style="fill:none;stroke-width:0.280000;stroke-linecap:round;stroke-linejoin:round;stroke-opacity:1;stroke:#999999;" d="M 1116.518416,514.559476 L 1116.518416,515.135476 "/>
        <path style="fill:none;stroke-width:0.280000;stroke-linecap:round;stroke-linejoin:round;stroke-opacity:1;stroke:#999999;" d="M 1121.752416,505.113476 C 1122.689750,505.180142 1123.517083,505.768809 1123.887083,506.632809 C 1124.447083,507.740142 1124.731083,508.975476 1124.712416,510.215476 C 1124.731750,511.468142 1124.441750,512.716142 1123.871750,513.832142 C 1123.452416,514.676142 1122.612416,515.240142 1121.672416,515.307476 C 1120.749083,515.183476 1119.939083,514.612809 1119.511083,513.785476 C 1118.971083,512.666142 1118.699083,511.426142 1118.720416,510.183476 C 1118.711750,508.904809 1119.011083,507.633476 1119.589083,506.492809 C 1120.034416,505.703476 1120.849083,505.184142 1121.752416,505.113476 "/>
        <path style="fill:none;stroke-width:0.280000;stroke-linecap:round;stroke-linejoin:round;stroke-opacity:1;stroke:#999999;" d="M 1108.558870,418.090170 L 1108.558870,503.786524 "/>
        <path style="fill:none;stroke-width:0.280000;stroke-linecap:round;stroke-linejoin:round;stroke-opacity:1;stroke:#999999;" d="M 1108.558870,516.557476 L 1108.558870,601.909830 "/>
        <path style="fill:none;stroke-width:0.280000;stroke-linecap:round;stroke-linejoin:round;stroke-opacity:1;stroke:#999999;" d="M 1077.500000,410.000000 L 1113.558870,410.000000 "/>
        <path style="fill:none;stroke-width:0.280000;stroke-linecap:round;stroke-linejoin:round;stroke-opacity:1;stroke:#999999;" d="M 1077.500000,610.000000 L 1113.558870,610.000000 "/>
        <path style="fill:none;stroke-width:0.280000;stroke-linecap:round;stroke-linejoin:round;stroke-opacity:1;stroke:#999999;" d="M 1108.558870,410.000000 L 1106.058870,418.090170 "/>
        <path style="fill:none;stroke-width:0.280000;stroke-linecap:round;stroke-linejoin:round;stroke-opacity:1;stroke:#999999;" d="M 1106.058870,418.090170 L 1111.058870,418.090170 "/>
        <path style="fill:none;stroke-width:0.280000;stroke-linecap:round;stroke-linejoin:round;stroke-opacity:1;stroke:#999999;" d="M 1111.058870,418.090170 L 1108.558870,410.000000 "/>
        <path style="fill:none;stroke-width:0.280000;stroke-linecap:round;stroke-linejoin:round;stroke-opacity:1;stroke:#999999;" d="M 1108.558870,610.000000 L 1111.058870,601.909830 "/>
        <path style="fill:none;stroke-width:0.280000;stroke-linecap:round;stroke-linejoin:round;stroke-opacity:1;stroke:#999999;" d="M 1111.058870,601.909830 L 1106.058870,601.909830 "/>
        <path style="fill:none;stroke-width:0.280000;stroke-linecap:round;stroke-linejoin:round;stroke-opacity:1;stroke:#999999;" d="M 1106.058870,601.909830 L 1108.558870,610.000000 "/>
        <path style="fill:none;stroke-width:0.280000;stroke-linecap:round;stroke-linejoin:round;stroke-opacity:1;stroke:#999999;" d="M 466.668567,382.928466 L 468.272567,382.036466 L 468.272567,392.076466 "/>
        <path style="fill:none;stroke-width:0.280000;stroke-linecap:round;stroke-linejoin:round;stroke-opacity:1;stroke:#999999;" d="M 476.070567,387.188466 C 475.473900,387.901133 474.589900,388.322466 473.660567,388.336466 C 472.812567,388.351133 471.991234,388.007133 471.406567,387.392466 C 470.797234,386.807133 470.457900,385.987800 470.474567,385.142466 C 470.469234,384.307133 470.815234,383.501800 471.424567,382.930466 C 472.017234,382.317800 472.844567,381.977133 473.696567,381.994466 C 474.523900,381.978466 475.325900,382.307133 475.904567,382.898466 C 476.499234,383.494466 476.833234,384.308466 476.828567,385.150466 C 476.827900,385.725800 476.664567,386.293800 476.360567,386.782466 L 473.040567,392.076466 "/>
        <path style="fill:none;stroke-width:0.280000;stroke-linecap:round;stroke-linejoin:round;stroke-opacity:1;stroke:#999999;" d="M 479.330567,383.786466 C 479.437234,383.345133 479.681234,382.945800 480.024567,382.648466 C 480.461900,382.201800 481.071234,381.956466 481.696567,381.976466 C 482.355900,381.958466 482.998567,382.211133 483.468567,382.674466 C 483.919234,383.121133 484.167900,383.737800 484.152567,384.372466 C 484.163234,385.025800 483.904567,385.659133 483.440567,386.118466 C 482.999234,386.580466 482.379234,386.835133 481.740567,386.816466 C 482.427234,386.818466 483.088567,387.097800 483.568567,387.588466 C 484.086567,388.087133 484.377900,388.781800 484.370567,389.500466 C 484.372567,390.213800 484.077234,390.900466 483.558567,391.390466 C 483.051234,391.893133 482.359234,392.175133 481.644567,392.170466 C 480.924567,392.181133 480.225900,391.895800 479.720567,391.382466 C 479.354567,390.995800 479.112567,390.503800 479.028567,389.978466 "/>
        <path style="fill:none;stroke-width:0.280000;stroke-linecap:round;stroke-linejoin:round;stroke-opacity:1;stroke:#999999;" d="M 486.570567,391.500466 L 486.570567,392.076466 "/>
        <path style="fill:none;stroke-width:0.280000;stroke-linecap:round;stroke-linejoin:round;stroke-opacity:1;stroke:#999999;" d="M 491.804567,382.054466 C 492.741900,382.121133 493.569234,382.709800 493.939234,383.573800 C 494.499234,384.681133 494.783234,385.916466 494.764567,387.156466 C 494.783900,388.409133 494.493900,389.657133 493.923900,390.773133 C 493.504567,391.617133 492.664567,392.181133 491.724567,392.248466 C 490.801234,392.124466 489.991234,391.553800 489.563234,390.726466 C 489.023234,389.607133 488.751234,388.367133 488.772567,387.124466 C 488.763900,385.845800 489.063234,384.574466 489.641234,383.433800 C 490.086567,382.644466 490.901234,382.125133 491.804567,382.054466 "/>
        <path style="fill:none;stroke-width:0.280000;stroke-linecap:round;stroke-linejoin:round;stroke-opacity:1;stroke:#999999;" d="M 543.263622,386.939917 L 496.015474,386.939917 "/>
        <path style="fill:none;stroke-width:0.280000;stroke-linecap:round;stroke-linejoin:round;stroke-opacity:1;stroke:#999999;" d="M 465.418567,386.939917 L 366.444170,386.939917 "/>
        <path style="fill:none;stroke-width:0.280000;stroke-linecap:round;stroke-linejoin:round;stroke-opacity:1;stroke:#999999;" d="M 551.353792,407.500000 L 551.353792,381.939917 "/>
        <path style="fill:none;stroke-width:0.280000;stroke-linecap:round;stroke-linejoin:round;stroke-opacity:1;stroke:#999999;" d="M 358.354000,407.500000 L 358.354000,381.939917 "/>
        <path style="fill:none;stroke-width:0.280000;stroke-linecap:round;stroke-linejoin:round;stroke-opacity:1;stroke:#999999;" d="M 551.353792,386.939917 L 543.263622,384.439917 "/>
        <path style="fill:none;stroke-width:0.280000;stroke-linecap:round;stroke-linejoin:round;stroke-opacity:1;stroke:#999999;" d="M 543.263622,384.439917 L 543.263622,389.439917 "/>
        <path style="fill:none;stroke-width:0.280000;stroke-linecap:round;stroke-linejoin:round;stroke-opacity:1;stroke:#999999;" d="M 543.263622,389.439917 L 551.353792,386.939917 "/>
        <path style="fill:none;stroke-width:0.280000;stroke-linecap:round;stroke-linejoin:round;stroke-opacity:1;stroke:#999999;" d="M 358.354000,386.939917 L 366.444170,389.439917 "/>
        <path style="fill:none;stroke-width:0.280000;stroke-linecap:round;stroke-linejoin:round;stroke-opacity:1;stroke:#999999;" d="M 366.444170,389.439917 L 366.444170,384.439917 "/>
        <path style="fill:none;stroke-width:0.280000;stroke-linecap:round;stroke-linejoin:round;stroke-opacity:1;stroke:#999999;" d="M 366.444170,384.439917 L 358.354000,386.939917 "/>
    </g>
</svg>
