solid OpenSCAD_Model
  facet normal -0.996196 0.0871433 0
    outer loop
      vertex -69.1193 7.26473 0
      vertex -69.1193 7.26473 -2
      vertex -69.3307 4.84807 0
    endloop
  endfacet
  facet normal -0.996196 0.0871433 0
    outer loop
      vertex -69.3307 4.84807 -2
      vertex -69.3307 4.84807 0
      vertex -69.1193 7.26473 -2
    endloop
  endfacet
  facet normal -0.874616 0.484817 0
    outer loop
      vertex -60.1888 34.75 0
      vertex -60.1888 34.75 -2
      vertex -61.3649 32.6283 0
    endloop
  endfacet
  facet normal -0.874616 0.484817 0
    outer loop
      vertex -61.3649 32.6283 -2
      vertex -61.3649 32.6283 0
      vertex -60.1888 34.75 -2
    endloop
  endfacet
  facet normal -0.292385 0.956301 0
    outer loop
      vertex -19.1568 66.8077 -2
      vertex -21.4767 66.0984 -2
      vertex -19.1568 66.8077 0
    endloop
  endfacet
  facet normal -0.292385 0.956301 0
    outer loop
      vertex -21.4767 66.0984 0
      vertex -19.1568 66.8077 0
      vertex -21.4767 66.0984 -2
    endloop
  endfacet
  facet normal -0.544633 0.838674 0
    outer loop
      vertex -36.8294 58.9393 -2
      vertex -38.8639 57.6181 -2
      vertex -36.8294 58.9393 0
    endloop
  endfacet
  facet normal -0.544633 0.838674 0
    outer loop
      vertex -38.8639 57.6181 0
      vertex -36.8294 58.9393 0
      vertex -38.8639 57.6181 -2
    endloop
  endfacet
  facet normal -0.992543 0.121893 0
    outer loop
      vertex -68.8236 9.67253 0
      vertex -68.8236 9.67253 -2
      vertex -69.1193 7.26473 0
    endloop
  endfacet
  facet normal -0.992543 0.121893 0
    outer loop
      vertex -69.1193 7.26473 -2
      vertex -69.1193 7.26473 0
      vertex -68.8236 9.67253 -2
    endloop
  endfacet
  facet normal -0.731347 0.682005 0
    outer loop
      vertex -49.9941 48.2788 0
      vertex -49.9941 48.2788 -2
      vertex -51.6486 46.5046 0
    endloop
  endfacet
  facet normal -0.731347 0.682005 0
    outer loop
      vertex -51.6486 46.5046 -2
      vertex -51.6486 46.5046 0
      vertex -49.9941 48.2788 -2
    endloop
  endfacet
  facet normal -0.857154 0.515059 0
    outer loop
      vertex -58.9393 36.8294 0
      vertex -58.9393 36.8294 -2
      vertex -60.1888 34.75 0
    endloop
  endfacet
  facet normal -0.857154 0.515059 0
    outer loop
      vertex -60.1888 34.75 -2
      vertex -60.1888 34.75 0
      vertex -58.9393 36.8294 -2
    endloop
  endfacet
  facet normal -0.0871433 0.996196 0
    outer loop
      vertex -4.84807 69.3307 -2
      vertex -7.26473 69.1193 -2
      vertex -4.84807 69.3307 0
    endloop
  endfacet
  facet normal -0.0871433 0.996196 0
    outer loop
      vertex -7.26473 69.1193 0
      vertex -4.84807 69.3307 0
      vertex -7.26473 69.1193 -2
    endloop
  endfacet
  facet normal -0.258835 0.965922 0
    outer loop
      vertex -16.8136 67.4356 -2
      vertex -19.1568 66.8077 -2
      vertex -16.8136 67.4356 0
    endloop
  endfacet
  facet normal -0.258835 0.965922 0
    outer loop
      vertex -19.1568 66.8077 0
      vertex -16.8136 67.4356 0
      vertex -19.1568 66.8077 -2
    endloop
  endfacet
  facet normal -0.453978 0.891013 0
    outer loop
      vertex -30.4668 62.4662 -2
      vertex -32.6283 61.3649 -2
      vertex -30.4668 62.4662 0
    endloop
  endfacet
  facet normal -0.453978 0.891013 0
    outer loop
      vertex -32.6283 61.3649 0
      vertex -30.4668 62.4662 0
      vertex -32.6283 61.3649 -2
    endloop
  endfacet
  facet normal -0.999848 0.017437 0
    outer loop
      vertex -69.4577 2.42551 0
      vertex -69.4577 2.42551 -2
      vertex -69.5 0 0
    endloop
  endfacet
  facet normal -0.999848 0.017437 0
    outer loop
      vertex -69.5 0 -2
      vertex -69.5 0 0
      vertex -69.4577 2.42551 -2
    endloop
  endfacet
  facet normal -0.920498 0.390748 0
    outer loop
      vertex -63.4914 28.2682 0
      vertex -63.4914 28.2682 -2
      vertex -64.4393 26.0352 0
    endloop
  endfacet
  facet normal -0.920498 0.390748 0
    outer loop
      vertex -64.4393 26.0352 -2
      vertex -64.4393 26.0352 0
      vertex -63.4914 28.2682 -2
    endloop
  endfacet
  facet normal -0.945517 0.325574 0
    outer loop
      vertex -65.3086 23.7704 0
      vertex -65.3086 23.7704 -2
      vertex -66.0984 21.4767 0
    endloop
  endfacet
  facet normal -0.945517 0.325574 0
    outer loop
      vertex -66.0984 21.4767 -2
      vertex -66.0984 21.4767 0
      vertex -65.3086 23.7704 -2
    endloop
  endfacet
  facet normal -0.956301 0.292385 0
    outer loop
      vertex -66.0984 21.4767 0
      vertex -66.0984 21.4767 -2
      vertex -66.8077 19.1568 0
    endloop
  endfacet
  facet normal -0.956301 0.292385 0
    outer loop
      vertex -66.8077 19.1568 -2
      vertex -66.8077 19.1568 0
      vertex -66.0984 21.4767 -2
    endloop
  endfacet
  facet normal -0.981635 0.19077 0
    outer loop
      vertex -67.9813 14.4499 0
      vertex -67.9813 14.4499 -2
      vertex -68.4441 12.0685 0
    endloop
  endfacet
  facet normal -0.981635 0.19077 0
    outer loop
      vertex -68.4441 12.0685 -2
      vertex -68.4441 12.0685 0
      vertex -67.9813 14.4499 -2
    endloop
  endfacet
  facet normal -0.906312 0.42261 0
    outer loop
      vertex -62.4662 30.4668 0
      vertex -62.4662 30.4668 -2
      vertex -63.4914 28.2682 0
    endloop
  endfacet
  facet normal -0.906312 0.42261 0
    outer loop
      vertex -63.4914 28.2682 -2
      vertex -63.4914 28.2682 0
      vertex -62.4662 30.4668 -2
    endloop
  endfacet
  facet normal -0.819162 0.573562 0
    outer loop
      vertex -56.2267 40.8511 0
      vertex -56.2267 40.8511 -2
      vertex -57.6181 38.8639 0
    endloop
  endfacet
  facet normal -0.819162 0.573562 0
    outer loop
      vertex -57.6181 38.8639 -2
      vertex -57.6181 38.8639 0
      vertex -56.2267 40.8511 -2
    endloop
  endfacet
  facet normal -0.754725 0.656041 0
    outer loop
      vertex -51.6486 46.5046 0
      vertex -51.6486 46.5046 -2
      vertex -53.2401 44.6737 0
    endloop
  endfacet
  facet normal -0.754725 0.656041 0
    outer loop
      vertex -53.2401 44.6737 -2
      vertex -53.2401 44.6737 0
      vertex -51.6486 46.5046 -2
    endloop
  endfacet
  facet normal -0.707107 0.707107 0
    outer loop
      vertex -48.2788 49.9941 0
      vertex -48.2788 49.9941 -2
      vertex -49.9941 48.2788 0
    endloop
  endfacet
  facet normal -0.707107 0.707107 0
    outer loop
      vertex -49.9941 48.2788 -2
      vertex -49.9941 48.2788 0
      vertex -48.2788 49.9941 -2
    endloop
  endfacet
  facet normal -0.358341 0.933591 0
    outer loop
      vertex -23.7704 65.3086 -2
      vertex -26.0352 64.4393 -2
      vertex -23.7704 65.3086 0
    endloop
  endfacet
  facet normal -0.358341 0.933591 0
    outer loop
      vertex -26.0352 64.4393 0
      vertex -23.7704 65.3086 0
      vertex -26.0352 64.4393 -2
    endloop
  endfacet
  facet normal -0.19077 0.981635 0
    outer loop
      vertex -12.0685 68.4441 -2
      vertex -14.4499 67.9813 -2
      vertex -12.0685 68.4441 0
    endloop
  endfacet
  facet normal -0.19077 0.981635 0
    outer loop
      vertex -14.4499 67.9813 0
      vertex -12.0685 68.4441 0
      vertex -14.4499 67.9813 -2
    endloop
  endfacet
  facet normal -0.017437 0.999848 0
    outer loop
      vertex 0 69.5 -2
      vertex -2.42551 69.4577 -2
      vertex 0 69.5 0
    endloop
  endfacet
  facet normal -0.017437 0.999848 0
    outer loop
      vertex -2.42551 69.4577 0
      vertex 0 69.5 0
      vertex -2.42551 69.4577 -2
    endloop
  endfacet
  facet normal -0.121893 0.992543 0
    outer loop
      vertex -7.26473 69.1193 -2
      vertex -9.67253 68.8236 -2
      vertex -7.26473 69.1193 0
    endloop
  endfacet
  facet normal -0.121893 0.992543 0
    outer loop
      vertex -9.67253 68.8236 0
      vertex -7.26473 69.1193 0
      vertex -9.67253 68.8236 -2
    endloop
  endfacet
  facet normal -0.156441 0.987687 0
    outer loop
      vertex -9.67253 68.8236 -2
      vertex -12.0685 68.4441 -2
      vertex -9.67253 68.8236 0
    endloop
  endfacet
  facet normal -0.156441 0.987687 0
    outer loop
      vertex -12.0685 68.4441 0
      vertex -9.67253 68.8236 0
      vertex -12.0685 68.4441 -2
    endloop
  endfacet
  facet normal -0.484817 0.874616 0
    outer loop
      vertex -32.6283 61.3649 -2
      vertex -34.75 60.1888 -2
      vertex -32.6283 61.3649 0
    endloop
  endfacet
  facet normal -0.484817 0.874616 0
    outer loop
      vertex -34.75 60.1888 0
      vertex -32.6283 61.3649 0
      vertex -34.75 60.1888 -2
    endloop
  endfacet
  facet normal -0.390748 0.920498 0
    outer loop
      vertex -26.0352 64.4393 -2
      vertex -28.2682 63.4914 -2
      vertex -26.0352 64.4393 0
    endloop
  endfacet
  facet normal -0.390748 0.920498 0
    outer loop
      vertex -28.2682 63.4914 0
      vertex -26.0352 64.4393 0
      vertex -28.2682 63.4914 -2
    endloop
  endfacet
  facet normal -0.515059 0.857154 0
    outer loop
      vertex -34.75 60.1888 -2
      vertex -36.8294 58.9393 -2
      vertex -34.75 60.1888 0
    endloop
  endfacet
  facet normal -0.515059 0.857154 0
    outer loop
      vertex -36.8294 58.9393 0
      vertex -34.75 60.1888 0
      vertex -36.8294 58.9393 -2
    endloop
  endfacet
  facet normal -0.601832 0.798623 0
    outer loop
      vertex -40.8511 56.2267 -2
      vertex -42.7885 54.7667 -2
      vertex -40.8511 56.2267 0
    endloop
  endfacet
  facet normal -0.601832 0.798623 0
    outer loop
      vertex -42.7885 54.7667 0
      vertex -40.8511 56.2267 0
      vertex -42.7885 54.7667 -2
    endloop
  endfacet
  facet normal -0.682005 0.731347 0
    outer loop
      vertex -46.5046 51.6486 -2
      vertex -48.2788 49.9941 -2
      vertex -46.5046 51.6486 0
    endloop
  endfacet
  facet normal -0.682005 0.731347 0
    outer loop
      vertex -48.2788 49.9941 0
      vertex -46.5046 51.6486 0
      vertex -48.2788 49.9941 -2
    endloop
  endfacet
  facet normal -0.656041 0.754725 0
    outer loop
      vertex -44.6737 53.2401 -2
      vertex -46.5046 51.6486 -2
      vertex -44.6737 53.2401 0
    endloop
  endfacet
  facet normal -0.656041 0.754725 0
    outer loop
      vertex -46.5046 51.6486 0
      vertex -44.6737 53.2401 0
      vertex -46.5046 51.6486 -2
    endloop
  endfacet
  facet normal -0.933591 0.358341 0
    outer loop
      vertex -64.4393 26.0352 0
      vertex -64.4393 26.0352 -2
      vertex -65.3086 23.7704 0
    endloop
  endfacet
  facet normal -0.933591 0.358341 0
    outer loop
      vertex -65.3086 23.7704 -2
      vertex -65.3086 23.7704 0
      vertex -64.4393 26.0352 -2
    endloop
  endfacet
  facet normal -0.97437 0.22495 0
    outer loop
      vertex -67.4356 16.8136 0
      vertex -67.4356 16.8136 -2
      vertex -67.9813 14.4499 0
    endloop
  endfacet
  facet normal -0.97437 0.22495 0
    outer loop
      vertex -67.9813 14.4499 -2
      vertex -67.9813 14.4499 0
      vertex -67.4356 16.8136 -2
    endloop
  endfacet
  facet normal -0.965922 0.258835 0
    outer loop
      vertex -66.8077 19.1568 0
      vertex -66.8077 19.1568 -2
      vertex -67.4356 16.8136 0
    endloop
  endfacet
  facet normal -0.965922 0.258835 0
    outer loop
      vertex -67.4356 16.8136 -2
      vertex -67.4356 16.8136 0
      vertex -66.8077 19.1568 -2
    endloop
  endfacet
  facet normal -0.838674 0.544633 0
    outer loop
      vertex -57.6181 38.8639 0
      vertex -57.6181 38.8639 -2
      vertex -58.9393 36.8294 0
    endloop
  endfacet
  facet normal -0.838674 0.544633 0
    outer loop
      vertex -58.9393 36.8294 -2
      vertex -58.9393 36.8294 0
      vertex -57.6181 38.8639 -2
    endloop
  endfacet
  facet normal -0.777147 0.629319 0
    outer loop
      vertex -53.2401 44.6737 0
      vertex -53.2401 44.6737 -2
      vertex -54.7667 42.7885 0
    endloop
  endfacet
  facet normal -0.777147 0.629319 0
    outer loop
      vertex -54.7667 42.7885 -2
      vertex -54.7667 42.7885 0
      vertex -53.2401 44.6737 -2
    endloop
  endfacet
  facet normal -0.798623 0.601832 0
    outer loop
      vertex -54.7667 42.7885 0
      vertex -54.7667 42.7885 -2
      vertex -56.2267 40.8511 0
    endloop
  endfacet
  facet normal -0.798623 0.601832 0
    outer loop
      vertex -56.2267 40.8511 -2
      vertex -56.2267 40.8511 0
      vertex -54.7667 42.7885 -2
    endloop
  endfacet
  facet normal -0.22495 0.97437 0
    outer loop
      vertex -14.4499 67.9813 -2
      vertex -16.8136 67.4356 -2
      vertex -14.4499 67.9813 0
    endloop
  endfacet
  facet normal -0.22495 0.97437 0
    outer loop
      vertex -16.8136 67.4356 0
      vertex -14.4499 67.9813 0
      vertex -16.8136 67.4356 -2
    endloop
  endfacet
  facet normal -0.052352 0.998629 0
    outer loop
      vertex -2.42551 69.4577 -2
      vertex -4.84807 69.3307 -2
      vertex -2.42551 69.4577 0
    endloop
  endfacet
  facet normal -0.052352 0.998629 0
    outer loop
      vertex -4.84807 69.3307 0
      vertex -2.42551 69.4577 0
      vertex -4.84807 69.3307 -2
    endloop
  endfacet
  facet normal -0.573562 0.819162 0
    outer loop
      vertex -38.8639 57.6181 -2
      vertex -40.8511 56.2267 -2
      vertex -38.8639 57.6181 0
    endloop
  endfacet
  facet normal -0.573562 0.819162 0
    outer loop
      vertex -40.8511 56.2267 0
      vertex -38.8639 57.6181 0
      vertex -40.8511 56.2267 -2
    endloop
  endfacet
  facet normal 0 0 1
    outer loop
      vertex -57.6181 38.8639 0
      vertex -58.9393 36.8294 0
      vertex -56.9221 13.7886 0
    endloop
  endfacet
  facet normal 0 0 1
    outer loop
      vertex -58.9393 36.8294 0
      vertex -60.1888 34.75 0
      vertex -56.9221 13.7886 0
    endloop
  endfacet
  facet normal 0 0 1
    outer loop
      vertex -60.1888 34.75 0
      vertex -61.3649 32.6283 0
      vertex -56.9221 13.7886 0
    endloop
  endfacet
  facet normal 0 0 1
    outer loop
      vertex -61.3649 32.6283 0
      vertex -62.4662 30.4668 0
      vertex -56.9221 13.7886 0
    endloop
  endfacet
  facet normal 0 0 1
    outer loop
      vertex -62.4662 30.4668 0
      vertex -63.4914 28.2682 0
      vertex -56.9221 13.7886 0
    endloop
  endfacet
  facet normal 0 0 1
    outer loop
      vertex -63.4914 28.2682 0
      vertex -64.4393 26.0352 0
      vertex -56.9221 13.7886 0
    endloop
  endfacet
  facet normal 0 0 1
    outer loop
      vertex -64.4393 26.0352 0
      vertex -65.3086 23.7704 0
      vertex -56.9221 13.7886 0
    endloop
  endfacet
  facet normal 0 0 1
    outer loop
      vertex -65.3086 23.7704 0
      vertex -66.0984 21.4767 0
      vertex -56.9221 13.7886 0
    endloop
  endfacet
  facet normal 0 0 1
    outer loop
      vertex -42.8168 -0.316757 0
      vertex -56.9221 13.7886 0
      vertex -69.5 0 0
    endloop
  endfacet
  facet normal 0 0 1
    outer loop
      vertex -66.0984 21.4767 0
      vertex -66.8077 19.1568 0
      vertex -56.9221 13.7886 0
    endloop
  endfacet
  facet normal 0 0 1
    outer loop
      vertex -66.8077 19.1568 0
      vertex -67.4356 16.8136 0
      vertex -56.9221 13.7886 0
    endloop
  endfacet
  facet normal 0 -0 1
    outer loop
      vertex -67.5 -25 0
      vertex -42.8168 -0.316757 0
      vertex -69.5 0 0
    endloop
  endfacet
  facet normal -0 0 1
    outer loop
      vertex -69.4577 2.42551 0
      vertex -69.5 0 0
      vertex -56.9221 13.7886 0
    endloop
  endfacet
  facet normal 0 0 1
    outer loop
      vertex -67.4356 16.8136 0
      vertex -67.9813 14.4499 0
      vertex -56.9221 13.7886 0
    endloop
  endfacet
  facet normal 0 0 1
    outer loop
      vertex -67.9813 14.4499 0
      vertex -68.4441 12.0685 0
      vertex -56.9221 13.7886 0
    endloop
  endfacet
  facet normal -0 0 1
    outer loop
      vertex -68.4441 12.0685 0
      vertex -68.8236 9.67253 0
      vertex -56.9221 13.7886 0
    endloop
  endfacet
  facet normal -0 0 1
    outer loop
      vertex -68.8236 9.67253 0
      vertex -69.1193 7.26473 0
      vertex -56.9221 13.7886 0
    endloop
  endfacet
  facet normal -0 0 1
    outer loop
      vertex -69.1193 7.26473 0
      vertex -69.3307 4.84807 0
      vertex -56.9221 13.7886 0
    endloop
  endfacet
  facet normal 0 0 1
    outer loop
      vertex -69.5 -25 0
      vertex -67.5 -25 0
      vertex -69.5 0 0
    endloop
  endfacet
  facet normal -0 0 1
    outer loop
      vertex -69.3307 4.84807 0
      vertex -69.4577 2.42551 0
      vertex -56.9221 13.7886 0
    endloop
  endfacet
  facet normal 0 -0 1
    outer loop
      vertex 0.316757 42.8168 0
      vertex 25 67.5 0
      vertex 0 69.5 0
    endloop
  endfacet
  facet normal 0 0 1
    outer loop
      vertex 25 69.5 0
      vertex 0 69.5 0
      vertex 25 67.5 0
    endloop
  endfacet
  facet normal 0 0 1
    outer loop
      vertex 0.316757 42.8168 0
      vertex 0 69.5 0
      vertex -13.7886 56.9221 0
    endloop
  endfacet
  facet normal -0 0 1
    outer loop
      vertex -2.42551 69.4577 0
      vertex -13.7886 56.9221 0
      vertex 0 69.5 0
    endloop
  endfacet
  facet normal -0 0 1
    outer loop
      vertex -4.84807 69.3307 0
      vertex -13.7886 56.9221 0
      vertex -2.42551 69.4577 0
    endloop
  endfacet
  facet normal -0 0 1
    outer loop
      vertex -7.26473 69.1193 0
      vertex -13.7886 56.9221 0
      vertex -4.84807 69.3307 0
    endloop
  endfacet
  facet normal -0 0 1
    outer loop
      vertex -9.67253 68.8236 0
      vertex -13.7886 56.9221 0
      vertex -7.26473 69.1193 0
    endloop
  endfacet
  facet normal -0 0 1
    outer loop
      vertex -12.0685 68.4441 0
      vertex -13.7886 56.9221 0
      vertex -9.67253 68.8236 0
    endloop
  endfacet
  facet normal 0 0 1
    outer loop
      vertex -12.0685 68.4441 0
      vertex -14.4499 67.9813 0
      vertex -13.7886 56.9221 0
    endloop
  endfacet
  facet normal 0 0 1
    outer loop
      vertex -14.4499 67.9813 0
      vertex -16.8136 67.4356 0
      vertex -13.7886 56.9221 0
    endloop
  endfacet
  facet normal 0 0 1
    outer loop
      vertex -16.8136 67.4356 0
      vertex -19.1568 66.8077 0
      vertex -13.7886 56.9221 0
    endloop
  endfacet
  facet normal 0 0 1
    outer loop
      vertex -19.1568 66.8077 0
      vertex -21.4767 66.0984 0
      vertex -13.7886 56.9221 0
    endloop
  endfacet
  facet normal 0 0 1
    outer loop
      vertex -21.4767 66.0984 0
      vertex -23.7704 65.3086 0
      vertex -13.7886 56.9221 0
    endloop
  endfacet
  facet normal 0 0 1
    outer loop
      vertex -23.7704 65.3086 0
      vertex -26.0352 64.4393 0
      vertex -13.7886 56.9221 0
    endloop
  endfacet
  facet normal 0 0 1
    outer loop
      vertex -26.0352 64.4393 0
      vertex -28.2682 63.4914 0
      vertex -13.7886 56.9221 0
    endloop
  endfacet
  facet normal 0 0 1
    outer loop
      vertex -28.2682 63.4914 0
      vertex -30.4668 62.4662 0
      vertex -13.7886 56.9221 0
    endloop
  endfacet
  facet normal 0 0 1
    outer loop
      vertex -30.4668 62.4662 0
      vertex -32.6283 61.3649 0
      vertex -13.7886 56.9221 0
    endloop
  endfacet
  facet normal 0 0 1
    outer loop
      vertex -32.6283 61.3649 0
      vertex -34.75 60.1888 0
      vertex -13.7886 56.9221 0
    endloop
  endfacet
  facet normal 0 0 1
    outer loop
      vertex -34.75 60.1888 0
      vertex -36.8294 58.9393 0
      vertex -13.7886 56.9221 0
    endloop
  endfacet
  facet normal 0 0 1
    outer loop
      vertex -36.8294 58.9393 0
      vertex -38.8639 57.6181 0
      vertex -13.7886 56.9221 0
    endloop
  endfacet
  facet normal 0 0 1
    outer loop
      vertex -38.8639 57.6181 0
      vertex -40.8511 56.2267 0
      vertex -13.7886 56.9221 0
    endloop
  endfacet
  facet normal -0 0 1
    outer loop
      vertex -40.8511 56.2267 0
      vertex -42.7885 54.7667 0
      vertex -13.7886 56.9221 0
    endloop
  endfacet
  facet normal -0 0 1
    outer loop
      vertex -42.7885 54.7667 0
      vertex -44.6737 53.2401 0
      vertex -13.7886 56.9221 0
    endloop
  endfacet
  facet normal -0 0 1
    outer loop
      vertex -44.6737 53.2401 0
      vertex -46.5046 51.6486 0
      vertex -13.7886 56.9221 0
    endloop
  endfacet
  facet normal -0 0 1
    outer loop
      vertex -46.5046 51.6486 0
      vertex -48.2788 49.9941 0
      vertex -13.7886 56.9221 0
    endloop
  endfacet
  facet normal -0 0 1
    outer loop
      vertex -48.2788 49.9941 0
      vertex -49.9941 48.2788 0
      vertex -13.7886 56.9221 0
    endloop
  endfacet
  facet normal 0 0 1
    outer loop
      vertex -13.7886 56.9221 0
      vertex -49.9941 48.2788 0
      vertex -56.9221 13.7886 0
    endloop
  endfacet
  facet normal -0 0 1
    outer loop
      vertex -51.6486 46.5046 0
      vertex -56.9221 13.7886 0
      vertex -49.9941 48.2788 0
    endloop
  endfacet
  facet normal -0 0 1
    outer loop
      vertex -53.2401 44.6737 0
      vertex -56.9221 13.7886 0
      vertex -51.6486 46.5046 0
    endloop
  endfacet
  facet normal -0 0 1
    outer loop
      vertex -54.7667 42.7885 0
      vertex -56.9221 13.7886 0
      vertex -53.2401 44.6737 0
    endloop
  endfacet
  facet normal -0 0 1
    outer loop
      vertex -56.2267 40.8511 0
      vertex -56.9221 13.7886 0
      vertex -54.7667 42.7885 0
    endloop
  endfacet
  facet normal -0 0 1
    outer loop
      vertex -57.6181 38.8639 0
      vertex -56.9221 13.7886 0
      vertex -56.2267 40.8511 0
    endloop
  endfacet
  facet normal 0 -0 -1
    outer loop
      vertex 25 71.5 -2
      vertex 25 67.5 -2
      vertex 0 69.5 -2
    endloop
  endfacet
  facet normal 0 0 -1
    outer loop
      vertex 0 71.5 -2
      vertex 25 71.5 -2
      vertex 0 69.5 -2
    endloop
  endfacet
  facet normal 0 0 -1
    outer loop
      vertex 0.316757 42.8168 -2
      vertex 0 69.5 -2
      vertex 25 67.5 -2
    endloop
  endfacet
  facet normal 0 -0 -1
    outer loop
      vertex -2.42551 69.4577 -2
      vertex 0 69.5 -2
      vertex -13.7886 56.9221 -2
    endloop
  endfacet
  facet normal 0 -0 -1
    outer loop
      vertex -4.84807 69.3307 -2
      vertex -2.42551 69.4577 -2
      vertex -13.7886 56.9221 -2
    endloop
  endfacet
  facet normal 0 -0 -1
    outer loop
      vertex -7.26473 69.1193 -2
      vertex -4.84807 69.3307 -2
      vertex -13.7886 56.9221 -2
    endloop
  endfacet
  facet normal 0 -0 -1
    outer loop
      vertex -9.67253 68.8236 -2
      vertex -7.26473 69.1193 -2
      vertex -13.7886 56.9221 -2
    endloop
  endfacet
  facet normal 0 -0 -1
    outer loop
      vertex -12.0685 68.4441 -2
      vertex -9.67253 68.8236 -2
      vertex -13.7886 56.9221 -2
    endloop
  endfacet
  facet normal 0 0 -1
    outer loop
      vertex 0.316757 42.8168 -2
      vertex -13.7886 56.9221 -2
      vertex 0 69.5 -2
    endloop
  endfacet
  facet normal 0 0 -1
    outer loop
      vertex -12.0685 68.4441 -2
      vertex -13.7886 56.9221 -2
      vertex -14.4499 67.9813 -2
    endloop
  endfacet
  facet normal 0 -0 -1
    outer loop
      vertex -14.4499 67.9813 -2
      vertex -13.7886 56.9221 -2
      vertex -16.8136 67.4356 -2
    endloop
  endfacet
  facet normal 0 -0 -1
    outer loop
      vertex -16.8136 67.4356 -2
      vertex -13.7886 56.9221 -2
      vertex -19.1568 66.8077 -2
    endloop
  endfacet
  facet normal 0 -0 -1
    outer loop
      vertex -19.1568 66.8077 -2
      vertex -13.7886 56.9221 -2
      vertex -21.4767 66.0984 -2
    endloop
  endfacet
  facet normal 0 -0 -1
    outer loop
      vertex -21.4767 66.0984 -2
      vertex -13.7886 56.9221 -2
      vertex -23.7704 65.3086 -2
    endloop
  endfacet
  facet normal 0 -0 -1
    outer loop
      vertex -23.7704 65.3086 -2
      vertex -13.7886 56.9221 -2
      vertex -26.0352 64.4393 -2
    endloop
  endfacet
  facet normal 0 -0 -1
    outer loop
      vertex -26.0352 64.4393 -2
      vertex -13.7886 56.9221 -2
      vertex -28.2682 63.4914 -2
    endloop
  endfacet
  facet normal 0 -0 -1
    outer loop
      vertex -28.2682 63.4914 -2
      vertex -13.7886 56.9221 -2
      vertex -30.4668 62.4662 -2
    endloop
  endfacet
  facet normal 0 -0 -1
    outer loop
      vertex -30.4668 62.4662 -2
      vertex -13.7886 56.9221 -2
      vertex -32.6283 61.3649 -2
    endloop
  endfacet
  facet normal 0 -0 -1
    outer loop
      vertex -34.75 60.1888 -2
      vertex -32.6283 61.3649 -2
      vertex -35.0974 35.6133 -2
    endloop
  endfacet
  facet normal -0 0 -1
    outer loop
      vertex -13.7886 56.9221 -2
      vertex -35.0974 35.6133 -2
      vertex -32.6283 61.3649 -2
    endloop
  endfacet
  facet normal 0 0 -1
    outer loop
      vertex -34.75 60.1888 -2
      vertex -35.0974 35.6133 -2
      vertex -36.8294 58.9393 -2
    endloop
  endfacet
  facet normal 0 -0 -1
    outer loop
      vertex -36.8294 58.9393 -2
      vertex -35.0974 35.6133 -2
      vertex -38.8639 57.6181 -2
    endloop
  endfacet
  facet normal 0 -0 -1
    outer loop
      vertex -40.8511 56.2267 -2
      vertex -35.0974 35.6133 -2
      vertex -42.7885 54.7667 -2
    endloop
  endfacet
  facet normal 0 -0 -1
    outer loop
      vertex -38.8639 57.6181 -2
      vertex -35.0974 35.6133 -2
      vertex -40.8511 56.2267 -2
    endloop
  endfacet
  facet normal 0 0 -1
    outer loop
      vertex -37.9475 35.6133 -2
      vertex -42.7885 54.7667 -2
      vertex -35.0974 35.6133 -2
    endloop
  endfacet
  facet normal 0 -0 -1
    outer loop
      vertex -42.7885 54.7667 -2
      vertex -37.9475 35.6133 -2
      vertex -44.6737 53.2401 -2
    endloop
  endfacet
  facet normal 0 -0 -1
    outer loop
      vertex -44.6737 53.2401 -2
      vertex -37.9475 35.6133 -2
      vertex -46.5046 51.6486 -2
    endloop
  endfacet
  facet normal 0 -0 -1
    outer loop
      vertex -46.5046 51.6486 -2
      vertex -37.9475 35.6133 -2
      vertex -48.2788 49.9941 -2
    endloop
  endfacet
  facet normal 0 -0 -1
    outer loop
      vertex -48.2788 49.9941 -2
      vertex -37.9475 35.6133 -2
      vertex -49.9941 48.2788 -2
    endloop
  endfacet
  facet normal 0 -0 -1
    outer loop
      vertex -49.9941 48.2788 -2
      vertex -37.9475 35.6133 -2
      vertex -51.6486 46.5046 -2
    endloop
  endfacet
  facet normal 0 -0 -1
    outer loop
      vertex -51.6486 46.5046 -2
      vertex -37.9475 35.6133 -2
      vertex -53.2401 44.6737 -2
    endloop
  endfacet
  facet normal 0 -0 -1
    outer loop
      vertex -53.2401 44.6737 -2
      vertex -37.9475 35.6133 -2
      vertex -54.7667 42.7885 -2
    endloop
  endfacet
  facet normal 0 -0 -1
    outer loop
      vertex -54.7667 42.7885 -2
      vertex -37.9475 35.6133 -2
      vertex -56.2267 40.8511 -2
    endloop
  endfacet
  facet normal 0 0 -1
    outer loop
      vertex -37.9475 34.3683 -2
      vertex -56.2267 40.8511 -2
      vertex -37.9475 35.6133 -2
    endloop
  endfacet
  facet normal -0 0 -1
    outer loop
      vertex -36.3424 34.3683 -2
      vertex -56.9221 13.7886 -2
      vertex -37.9475 34.3683 -2
    endloop
  endfacet
  facet normal 0 -0 -1
    outer loop
      vertex -56.2267 40.8511 -2
      vertex -37.9475 34.3683 -2
      vertex -57.6181 38.8639 -2
    endloop
  endfacet
  facet normal 0 -0 -1
    outer loop
      vertex -57.6181 38.8639 -2
      vertex -37.9475 34.3683 -2
      vertex -58.9393 36.8294 -2
    endloop
  endfacet
  facet normal 0 -0 -1
    outer loop
      vertex -58.9393 36.8294 -2
      vertex -37.9475 34.3683 -2
      vertex -60.1888 34.75 -2
    endloop
  endfacet
  facet normal 0 -0 -1
    outer loop
      vertex -60.1888 34.75 -2
      vertex -37.9475 34.3683 -2
      vertex -61.3649 32.6283 -2
    endloop
  endfacet
  facet normal 0 0 -1
    outer loop
      vertex -56.9221 13.7886 -2
      vertex -61.3649 32.6283 -2
      vertex -37.9475 34.3683 -2
    endloop
  endfacet
  facet normal 0 -0 -1
    outer loop
      vertex -61.3649 32.6283 -2
      vertex -56.9221 13.7886 -2
      vertex -62.4662 30.4668 -2
    endloop
  endfacet
  facet normal 0 -0 -1
    outer loop
      vertex -62.4662 30.4668 -2
      vertex -56.9221 13.7886 -2
      vertex -63.4914 28.2682 -2
    endloop
  endfacet
  facet normal 0 -0 -1
    outer loop
      vertex -63.4914 28.2682 -2
      vertex -56.9221 13.7886 -2
      vertex -64.4393 26.0352 -2
    endloop
  endfacet
  facet normal 0 -0 -1
    outer loop
      vertex -64.4393 26.0352 -2
      vertex -56.9221 13.7886 -2
      vertex -65.3086 23.7704 -2
    endloop
  endfacet
  facet normal 0 -0 -1
    outer loop
      vertex -65.3086 23.7704 -2
      vertex -56.9221 13.7886 -2
      vertex -66.0984 21.4767 -2
    endloop
  endfacet
  facet normal 0 -0 -1
    outer loop
      vertex -66.0984 21.4767 -2
      vertex -56.9221 13.7886 -2
      vertex -66.8077 19.1568 -2
    endloop
  endfacet
  facet normal 0 -0 -1
    outer loop
      vertex -66.8077 19.1568 -2
      vertex -56.9221 13.7886 -2
      vertex -67.4356 16.8136 -2
    endloop
  endfacet
  facet normal 0 -0 -1
    outer loop
      vertex -67.4356 16.8136 -2
      vertex -56.9221 13.7886 -2
      vertex -67.9813 14.4499 -2
    endloop
  endfacet
  facet normal 0 -0 -1
    outer loop
      vertex -67.9813 14.4499 -2
      vertex -56.9221 13.7886 -2
      vertex -68.4441 12.0685 -2
    endloop
  endfacet
  facet normal 0 -0 -1
    outer loop
      vertex -68.4441 12.0685 -2
      vertex -56.9221 13.7886 -2
      vertex -68.8236 9.67253 -2
    endloop
  endfacet
  facet normal 0 -0 -1
    outer loop
      vertex -68.8236 9.67253 -2
      vertex -56.9221 13.7886 -2
      vertex -69.1193 7.26473 -2
    endloop
  endfacet
  facet normal 0 -0 -1
    outer loop
      vertex -69.1193 7.26473 -2
      vertex -56.9221 13.7886 -2
      vertex -69.3307 4.84807 -2
    endloop
  endfacet
  facet normal 0 -0 -1
    outer loop
      vertex -69.3307 4.84807 -2
      vertex -56.9221 13.7886 -2
      vertex -69.4577 2.42551 -2
    endloop
  endfacet
  facet normal 0 -0 -1
    outer loop
      vertex -69.4577 2.42551 -2
      vertex -56.9221 13.7886 -2
      vertex -69.5 0 -2
    endloop
  endfacet
  facet normal 0 0 -1
    outer loop
      vertex -42.8168 -0.316757 -2
      vertex -69.5 0 -2
      vertex -56.9221 13.7886 -2
    endloop
  endfacet
  facet normal 0 0 -1
    outer loop
      vertex -67.5 -25 -2
      vertex -69.5 0 -2
      vertex -42.8168 -0.316757 -2
    endloop
  endfacet
  facet normal 0 0 -1
    outer loop
      vertex -71.5 0 -2
      vertex -69.5 0 -2
      vertex -71.5 -25 -2
    endloop
  endfacet
  facet normal 0 0 -1
    outer loop
      vertex -67.5 -25 -2
      vertex -71.5 -25 -2
      vertex -69.5 0 -2
    endloop
  endfacet
  facet normal -0.998629 0.052352 0
    outer loop
      vertex -69.3307 4.84807 0
      vertex -69.3307 4.84807 -2
      vertex -69.4577 2.42551 0
    endloop
  endfacet
  facet normal -0.998629 0.052352 0
    outer loop
      vertex -69.4577 2.42551 -2
      vertex -69.4577 2.42551 0
      vertex -69.3307 4.84807 -2
    endloop
  endfacet
  facet normal -0.987687 0.156441 0
    outer loop
      vertex -68.4441 12.0685 0
      vertex -68.4441 12.0685 -2
      vertex -68.8236 9.67253 0
    endloop
  endfacet
  facet normal -0.987687 0.156441 0
    outer loop
      vertex -68.8236 9.67253 -2
      vertex -68.8236 9.67253 0
      vertex -68.4441 12.0685 -2
    endloop
  endfacet
  facet normal -0.891013 0.453978 0
    outer loop
      vertex -61.3649 32.6283 0
      vertex -61.3649 32.6283 -2
      vertex -62.4662 30.4668 0
    endloop
  endfacet
  facet normal -0.891013 0.453978 0
    outer loop
      vertex -62.4662 30.4668 -2
      vertex -62.4662 30.4668 0
      vertex -61.3649 32.6283 -2
    endloop
  endfacet
  facet normal -0.325574 0.945517 0
    outer loop
      vertex -21.4767 66.0984 -2
      vertex -23.7704 65.3086 -2
      vertex -21.4767 66.0984 0
    endloop
  endfacet
  facet normal -0.325574 0.945517 0
    outer loop
      vertex -23.7704 65.3086 0
      vertex -21.4767 66.0984 0
      vertex -23.7704 65.3086 -2
    endloop
  endfacet
  facet normal -0.42261 0.906312 0
    outer loop
      vertex -28.2682 63.4914 -2
      vertex -30.4668 62.4662 -2
      vertex -28.2682 63.4914 0
    endloop
  endfacet
  facet normal -0.42261 0.906312 0
    outer loop
      vertex -30.4668 62.4662 0
      vertex -28.2682 63.4914 0
      vertex -30.4668 62.4662 -2
    endloop
  endfacet
  facet normal -0.629319 0.777147 0
    outer loop
      vertex -42.7885 54.7667 -2
      vertex -44.6737 53.2401 -2
      vertex -42.7885 54.7667 0
    endloop
  endfacet
  facet normal -0.629319 0.777147 0
    outer loop
      vertex -44.6737 53.2401 0
      vertex -42.7885 54.7667 0
      vertex -44.6737 53.2401 -2
    endloop
  endfacet
  facet normal -1 0 0
    outer loop
      vertex 0 69.5 5
      vertex 0 71.5 5
      vertex 0 69.5 0
    endloop
  endfacet
  facet normal -1 0 0
    outer loop
      vertex 0 71.5 -2
      vertex 0 69.5 0
      vertex 0 71.5 5
    endloop
  endfacet
  facet normal -1 0 0
    outer loop
      vertex 0 69.5 -2
      vertex 0 69.5 0
      vertex 0 71.5 -2
    endloop
  endfacet
  facet normal 1 0 0
    outer loop
      vertex 25 71.5 5
      vertex 25 69.5 0
      vertex 25 71.5 -2
    endloop
  endfacet
  facet normal 1 0 0
    outer loop
      vertex 25 71.5 -2
      vertex 25 69.5 0
      vertex 25 67.5 -2
    endloop
  endfacet
  facet normal 1 -0 0
    outer loop
      vertex 25 67.5 0
      vertex 25 67.5 -2
      vertex 25 69.5 0
    endloop
  endfacet
  facet normal 1 -0 0
    outer loop
      vertex 25 69.5 5
      vertex 25 69.5 0
      vertex 25 71.5 5
    endloop
  endfacet
  facet normal 0 1 -0
    outer loop
      vertex 25 71.5 -2
      vertex 0 71.5 -2
      vertex 25 71.5 5
    endloop
  endfacet
  facet normal -0 1 0
    outer loop
      vertex 0 71.5 5
      vertex 25 71.5 5
      vertex 0 71.5 -2
    endloop
  endfacet
  facet normal 0 -0 1
    outer loop
      vertex 25 69.5 5
      vertex 25 71.5 5
      vertex 0 69.5 5
    endloop
  endfacet
  facet normal -0 0 1
    outer loop
      vertex 0 71.5 5
      vertex 0 69.5 5
      vertex 25 71.5 5
    endloop
  endfacet
  facet normal 0 -1 0
    outer loop
      vertex 0 69.5 0
      vertex 25 69.5 0
      vertex 0 69.5 5
    endloop
  endfacet
  facet normal -0 -1 -0
    outer loop
      vertex 25 69.5 5
      vertex 0 69.5 5
      vertex 25 69.5 0
    endloop
  endfacet
  facet normal -1 -0 -0
    outer loop
      vertex -71.5 0 5
      vertex -71.5 0 -2
      vertex -71.5 -25 5
    endloop
  endfacet
  facet normal -1 0 0
    outer loop
      vertex -71.5 -25 -2
      vertex -71.5 -25 5
      vertex -71.5 0 -2
    endloop
  endfacet
  facet normal 1 0 -0
    outer loop
      vertex -69.5 0 0
      vertex -69.5 0 5
      vertex -69.5 -25 0
    endloop
  endfacet
  facet normal 1 -0 0
    outer loop
      vertex -69.5 -25 5
      vertex -69.5 -25 0
      vertex -69.5 0 5
    endloop
  endfacet
  facet normal 0 1 -0
    outer loop
      vertex -69.5 0 -2
      vertex -71.5 0 -2
      vertex -69.5 0 0
    endloop
  endfacet
  facet normal 0 1 0
    outer loop
      vertex -69.5 0 5
      vertex -69.5 0 0
      vertex -71.5 0 5
    endloop
  endfacet
  facet normal 0 1 0
    outer loop
      vertex -71.5 0 -2
      vertex -71.5 0 5
      vertex -69.5 0 0
    endloop
  endfacet
  facet normal 0 -0 1
    outer loop
      vertex -69.5 -25 5
      vertex -69.5 0 5
      vertex -71.5 -25 5
    endloop
  endfacet
  facet normal -0 0 1
    outer loop
      vertex -71.5 0 5
      vertex -71.5 -25 5
      vertex -69.5 0 5
    endloop
  endfacet
  facet normal 0 -1 0
    outer loop
      vertex -67.5 -25 -2
      vertex -69.5 -25 0
      vertex -71.5 -25 -2
    endloop
  endfacet
  facet normal 0 -1 0
    outer loop
      vertex -71.5 -25 -2
      vertex -69.5 -25 0
      vertex -71.5 -25 5
    endloop
  endfacet
  facet normal -0 -1 -0
    outer loop
      vertex -69.5 -25 5
      vertex -71.5 -25 5
      vertex -69.5 -25 0
    endloop
  endfacet
  facet normal -0 -1 -0
    outer loop
      vertex -67.5 -25 0
      vertex -69.5 -25 0
      vertex -67.5 -25 -2
    endloop
  endfacet
  facet normal 0.707106 -0.707107 0
    outer loop
      vertex 25 67.5 -2
      vertex 25 67.5 0
      vertex 0.316757 42.8168 -2
    endloop
  endfacet
  facet normal 0.707106 -0.707107 0
    outer loop
      vertex 0.316757 42.8168 0
      vertex 0.316757 42.8168 -2
      vertex 25 67.5 0
    endloop
  endfacet
  facet normal 0.707107 -0.707106 0
    outer loop
      vertex -42.8168 -0.316757 -2
      vertex -42.8168 -0.316757 0
      vertex -67.5 -25 -2
    endloop
  endfacet
  facet normal 0.707107 -0.707106 0
    outer loop
      vertex -67.5 -25 0
      vertex -67.5 -25 -2
      vertex -42.8168 -0.316757 0
    endloop
  endfacet
  facet normal -0 0 -1
    outer loop
      vertex -35.0974 35.6133 -1.6
      vertex -36.3424 34.3683 -1.6
      vertex -37.9475 35.6133 -1.6
    endloop
  endfacet
  facet normal 0 0 -1
    outer loop
      vertex -37.9475 34.3683 -1.6
      vertex -37.9475 35.6133 -1.6
      vertex -36.3424 34.3683 -1.6
    endloop
  endfacet
  facet normal 0 -1 0
    outer loop
      vertex -37.9475 35.6133 -2
      vertex -35.0974 35.6133 -2
      vertex -37.9475 35.6133 -1.6
    endloop
  endfacet
  facet normal -0 -1 -0
    outer loop
      vertex -35.0974 35.6133 -1.6
      vertex -37.9475 35.6133 -1.6
      vertex -35.0974 35.6133 -2
    endloop
  endfacet
  facet normal 1 0 -0
    outer loop
      vertex -37.9475 35.6133 -2
      vertex -37.9475 35.6133 -1.6
      vertex -37.9475 34.3683 -2
    endloop
  endfacet
  facet normal 1 -0 0
    outer loop
      vertex -37.9475 34.3683 -1.6
      vertex -37.9475 34.3683 -2
      vertex -37.9475 35.6133 -1.6
    endloop
  endfacet
  facet normal 0 1 -0
    outer loop
      vertex -36.3424 34.3683 -2
      vertex -37.9475 34.3683 -2
      vertex -36.3424 34.3683 -1.6
    endloop
  endfacet
  facet normal -0 1 0
    outer loop
      vertex -37.9475 34.3683 -1.6
      vertex -36.3424 34.3683 -1.6
      vertex -37.9475 34.3683 -2
    endloop
  endfacet
  facet normal -0.707105 -0.707108 -0
    outer loop
      vertex -13.7886 56.9221 0
      vertex -13.7886 56.9221 -2
      vertex 0.316757 42.8168 0
    endloop
  endfacet
  facet normal -0.707105 -0.707108 0
    outer loop
      vertex 0.316757 42.8168 -2
      vertex 0.316757 42.8168 0
      vertex -13.7886 56.9221 -2
    endloop
  endfacet
  facet normal 0.707107 -0.707107 0
    outer loop
      vertex -36.3424 34.3683 -1.6
      vertex -56.9221 13.7886 -2
      vertex -36.3424 34.3683 -2
    endloop
  endfacet
  facet normal 0.707107 -0.707107 0
    outer loop
      vertex -35.0974 35.6133 -2
      vertex -13.7886 56.9221 -2
      vertex -35.0974 35.6133 -1.6
    endloop
  endfacet
  facet normal 0.707107 -0.707107 0
    outer loop
      vertex -13.7886 56.9221 0
      vertex -35.0974 35.6133 -1.6
      vertex -13.7886 56.9221 -2
    endloop
  endfacet
  facet normal 0.707107 -0.707107 -5.42281e-14
    outer loop
      vertex -35.0974 35.6133 -1.6
      vertex -13.7886 56.9221 0
      vertex -36.3424 34.3683 -1.6
    endloop
  endfacet
  facet normal 0.707107 -0.707107 0
    outer loop
      vertex -56.9221 13.7886 -2
      vertex -36.3424 34.3683 -1.6
      vertex -56.9221 13.7886 0
    endloop
  endfacet
  facet normal 0.707107 -0.707107 2.32965e-15
    outer loop
      vertex -13.7886 56.9221 0
      vertex -56.9221 13.7886 0
      vertex -36.3424 34.3683 -1.6
    endloop
  endfacet
  facet normal 0.707108 0.707105 -0
    outer loop
      vertex -56.9221 13.7886 -2
      vertex -56.9221 13.7886 0
      vertex -42.8168 -0.316757 -2
    endloop
  endfacet
  facet normal 0.707108 0.707105 0
    outer loop
      vertex -42.8168 -0.316757 0
      vertex -42.8168 -0.316757 -2
      vertex -56.9221 13.7886 0
    endloop
  endfacet
endsolid OpenSCAD_Model
